<svg height="512" viewBox="0 0 64 64" width="512" xmlns="http://www.w3.org/2000/svg"><g id="date_time" data-name="date time"><path d="m15 18h-6a1 1 0 0 0 -1 1v6a1 1 0 0 0 1 1h6a1 1 0 0 0 1-1v-6a1 1 0 0 0 -1-1zm-1 6h-4v-4h4z"/><path d="m22 18a4 4 0 1 0 4 4 4 4 0 0 0 -4-4zm0 6a2 2 0 1 1 2-2 2 2 0 0 1 -2 2z"/><path d="m32.031 25.969a4 4 0 1 0 -4-4 4 4 0 0 0 4 4zm0-6a2 2 0 1 1 -2 2 2 2 0 0 1 2-2z"/><path d="m42.062 25.938a4 4 0 1 0 -4-4 4 4 0 0 0 4 4zm0-6a2 2 0 1 1 -2 2 2 2 0 0 1 2-2z"/><path d="m22 28a4 4 0 1 0 4 4 4 4 0 0 0 -4-4zm0 6a2 2 0 1 1 2-2 2 2 0 0 1 -2 2z"/><path d="m15 28h-6a1 1 0 0 0 -1 1v6a1 1 0 0 0 1 1h6a1 1 0 0 0 1-1v-6a1 1 0 0 0 -1-1zm-1 6h-4v-4h4z"/><path d="m22 38a4 4 0 1 0 4 4 4 4 0 0 0 -4-4zm0 6a2 2 0 1 1 2-2 2 2 0 0 1 -2 2z"/><path d="m15 38h-6a1 1 0 0 0 -1 1v6a1 1 0 0 0 1 1h6a1 1 0 0 0 1-1v-6a1 1 0 0 0 -1-1zm-1 6h-4v-4h4z"/><path d="m52 29.53v-23.53a1 1 0 0 0 -1-1h-5v-2a1 1 0 0 0 -1-1h-6a1 1 0 0 0 -1 1v2h-22v-2a1 1 0 0 0 -1-1h-6a1 1 0 0 0 -1 1v2h-5a1 1 0 0 0 -1 1v43a1 1 0 0 0 1 1h25.75a17 17 0 1 0 23.25-20.47zm-12-25.53h4v4a2 2 0 0 1 -4 0zm-30 0h4v4a2 2 0 0 1 -4 0zm-6 3h4v1a4 4 0 0 0 8 0v-1h22v1a4 4 0 0 0 8 0v-1h4v7h-46zm24.28 41h-24.28v-32h46v12.75a17.005 17.005 0 0 0 -22 16.25 17.432 17.432 0 0 0 .28 3zm30.17 3.61-2.56-1.48-1 1.74 2.57 1.48a15.165 15.165 0 0 1 -4.11 4.11l-1.48-2.57-1.74 1 1.48 2.56a14.915 14.915 0 0 1 -5.61 1.5v-2.95h-2v2.95a14.915 14.915 0 0 1 -5.61-1.5l1.48-2.56-1.74-1-1.48 2.57a15.165 15.165 0 0 1 -4.11-4.11l2.57-1.48-1-1.74-2.56 1.48a14.915 14.915 0 0 1 -1.5-5.61h2.95v-2h-2.95a14.915 14.915 0 0 1 1.5-5.61l2.56 1.48 1-1.74-2.57-1.48a15.165 15.165 0 0 1 4.11-4.11l1.48 2.57 1.74-1-1.48-2.56a14.915 14.915 0 0 1 5.61-1.5v2.95h2v-2.95a14.915 14.915 0 0 1 5.61 1.5l-1.48 2.56 1.74 1 1.48-2.57a15.165 15.165 0 0 1 4.11 4.11l-2.57 1.48 1 1.74 2.56-1.48a14.915 14.915 0 0 1 1.5 5.61h-2.95v2h2.95a14.915 14.915 0 0 1 -1.5 5.61z"/><path d="m46 43.276v-8.276h-2v10a1 1 0 0 0 1.5.868l7-4-1-1.736z"/></g></svg>