<?xml version="1.0" encoding="iso-8859-1"?>
<!-- Generator: Adobe Illustrator 19.0.0, SVG Export Plug-In . SVG Version: 6.00 Build 0)  -->
<svg version="1.1" id="Capa_1" xmlns="http://www.w3.org/2000/svg" xmlns:xlink="http://www.w3.org/1999/xlink" x="0px" y="0px"
	 viewBox="0 0 511.879 511.879" style="enable-background:new 0 0 511.879 511.879;" xml:space="preserve">
<g>
	<g>
		<path d="M11.998,240.273c-2.21,0-3.999,1.788-3.999,3.999v23.994c0,2.21,1.789,3.999,3.999,3.999c2.211,0,3.999-1.789,3.999-3.999
			v-23.994C15.997,242.061,14.209,240.273,11.998,240.273z"/>
	</g>
</g>
<g>
	<g>
		<path d="M507.459,266.479l-4.249-8.428l-15.996-23.995c-0.453-0.687-1.117-1.21-1.882-1.507
			c-2.5-0.968-61.266-23.463-112.153-23.83c-9.646-6.647-78.465-52.754-136.983-56.417c-70.007-4.39-145.771,14.238-152.714,15.988
			H51.989c-1.382,0-2.671,0.718-3.397,1.898c-0.735,1.18-0.797,2.656-0.18,3.89l6.053,12.114l-35.952,14.379
			c-2.047,0.82-3.047,3.148-2.227,5.194c0.82,2.054,3.163,3.054,5.194,2.234l39.99-15.997c1.039-0.421,1.86-1.249,2.258-2.296
			c0.398-1.047,0.336-2.21-0.164-3.21l-5.101-10.209h25.518c0.344,0,0.687-0.039,1.015-0.125
			c0.782-0.211,78.872-20.378,150.699-15.879c59.463,3.718,133.18,55.175,133.914,55.698c0.679,0.477,1.484,0.727,2.304,0.727
			c45.841,0,100.711,19.652,109.365,22.862l15.027,22.486l3.999,7.998c0.703,1.406,2.116,2.211,3.585,2.211
			c0.602,0,1.211-0.133,1.782-0.421C507.647,270.86,508.451,268.455,507.459,266.479z"/>
	</g>
</g>
<g>
	<g>
		<path d="M511.755,315.232l-3.991-15.941c-0.532-2.148-2.71-3.445-4.851-2.906c-2.147,0.532-3.444,2.704-2.905,4.851l3.991,15.941
			c0.453,1.812,2.086,3.022,3.874,3.022c0.328,0,0.648-0.039,0.977-0.117C510.997,319.543,512.294,317.372,511.755,315.232z"/>
	</g>
</g>
<g>
	<g>
		<path d="M52.644,312.31l-44.646-7.436v-20.612c0-2.21-1.788-3.999-3.999-3.999c-2.21,0-3.999,1.789-3.999,3.999v23.994
			c0,1.961,1.414,3.624,3.343,3.944l47.989,7.998c0.227,0.039,0.446,0.055,0.664,0.055c1.922,0,3.617-1.381,3.937-3.342
			C56.299,314.732,54.823,312.677,52.644,312.31z"/>
	</g>
</g>
<g>
	<g>
		<path d="M35.993,208.28H15.997c-2.21,0-3.999,1.789-3.999,3.999c0,2.21,1.789,3.999,3.999,3.999h19.995c2.211,0,4-1.789,4-3.999
			C39.992,210.069,38.203,208.28,35.993,208.28z"/>
	</g>
</g>
<g>
	<g>
		<path d="M35.992,208.28c-2.21,0-3.999,1.789-3.999,3.999v23.995c0,2.21,1.789,3.999,3.999,3.999c2.211,0,3.999-1.789,3.999-3.999
			v-23.995C39.991,210.069,38.202,208.28,35.992,208.28z"/>
	</g>
</g>
<g>
	<g>
		<path d="M35.993,232.275H11.998c-2.21,0-3.999,1.788-3.999,3.999c0,2.21,1.789,3.999,3.999,3.999h23.994
			c2.211,0,3.999-1.789,4-3.999C39.992,234.063,38.203,232.275,35.993,232.275z"/>
	</g>
</g>
<g>
	<g>
		<path d="M35.993,272.265H11.998c-1.062,0-2.077,0.422-2.827,1.172l-7.998,7.998c-1.562,1.562-1.562,4.092,0,5.654
			c0.781,0.781,1.804,1.172,2.827,1.172s2.046-0.39,2.827-1.172l6.827-6.826h22.339c2.21,0,3.999-1.789,3.999-3.999
			C39.992,274.054,38.203,272.265,35.993,272.265z"/>
	</g>
</g>
<g>
	<g>
		<path d="M16.652,208.334c-2.163-0.382-4.234,1.109-4.601,3.289l-3.999,23.994c-0.359,2.179,1.11,4.242,3.289,4.601
			c0.227,0.039,0.445,0.055,0.664,0.055c1.922,0,3.617-1.383,3.936-3.344l3.999-23.995
			C20.307,210.755,18.831,208.701,16.652,208.334z"/>
	</g>
</g>
<g>
	<g>
		<path d="M371.912,312.255H147.965c-2.21,0-3.999,1.789-3.999,3.999c0,2.211,1.789,3.999,3.999,3.999h223.948
			c2.211,0,3.999-1.788,3.998-3.999C375.911,314.044,374.123,312.255,371.912,312.255z"/>
	</g>
</g>
<g>
	<g>
		<path d="M507.88,312.2h-0.008l-39.982,0.055c-2.21,0.008-3.999,1.797-3.999,4.007c0.008,2.203,1.797,3.991,3.999,3.991h0.008
			l39.982-0.055c2.211,0,3.999-1.796,3.999-3.999C511.871,313.989,510.083,312.2,507.88,312.2z"/>
	</g>
</g>
<g>
	<g>
		<path d="M494.54,248.271c-38.865,0-47.817-6.85-47.84-6.85c-1.586-1.546-4.108-1.531-5.655,0.047
			c-1.546,1.578-1.522,4.109,0.047,5.655c1.554,1.531,11.434,9.146,53.448,9.146c2.211,0,4-1.789,4-3.999
			C498.54,250.059,496.751,248.271,494.54,248.271z"/>
	</g>
</g>
<g>
	<g>
		<path d="M487.807,235.494c-0.43-2.172-2.522-3.593-4.702-3.14l-39.99,7.998c-2.163,0.437-3.57,2.538-3.14,4.709
			c0.383,1.898,2.054,3.21,3.921,3.21c0.257,0,0.523-0.023,0.788-0.077l39.991-7.998
			C486.838,239.766,488.245,237.657,487.807,235.494z"/>
	</g>
</g>
<g>
	<g>
		<path d="M503.881,288.261h-19.995c-2.21,0-3.999,1.789-3.999,3.999c0,2.21,1.789,3.999,3.999,3.999h19.995
			c2.211,0,3.999-1.789,3.999-3.999C507.88,290.05,506.092,288.261,503.881,288.261z"/>
	</g>
</g>
<g>
	<g>
		<path d="M503.881,264.267c-2.21,0-3.999,1.789-3.999,3.999v15.996c0,2.21,1.789,3.999,3.999,3.999
			c2.211,0,3.999-1.789,3.999-3.999v-15.996C507.88,266.056,506.092,264.267,503.881,264.267z"/>
	</g>
</g>
<g>
	<g>
		<path d="M503.881,288.261c-2.21,0-3.999,1.789-3.999,3.999v7.998c0,2.211,1.789,3.999,3.999,3.999
			c2.211,0,3.999-1.788,3.999-3.999v-7.998C507.88,290.05,506.092,288.261,503.881,288.261z"/>
	</g>
</g>
<g>
	<g>
		<path d="M420.143,312.255h-0.078c-2.21,0-3.959,1.789-3.959,3.999c0,2.211,1.827,3.999,4.037,3.999c2.211,0,4-1.788,4-3.999
			C424.143,314.044,422.354,312.255,420.143,312.255z"/>
	</g>
</g>
<g>
	<g>
		<path d="M419.901,272.266c-24.252,0-43.989,19.737-43.989,43.989c0,24.261,19.737,43.99,43.989,43.99
			c24.26,0,43.99-19.73,43.99-43.99C463.891,292.003,444.161,272.266,419.901,272.266z M419.901,352.245
			c-19.846,0-35.991-16.145-35.991-35.991s16.144-35.991,35.991-35.991c19.848,0,35.992,16.145,35.992,35.991
			S439.749,352.245,419.901,352.245z"/>
	</g>
</g>
<g>
	<g>
		<path d="M419.901,288.261c-2.21,0-3.998,1.789-3.998,3.999v7.998c0,2.211,1.788,3.999,3.998,3.999c2.211,0,4-1.788,4-3.999v-7.998
			C423.901,290.05,422.112,288.261,419.901,288.261z"/>
	</g>
</g>
<g>
	<g>
		<path d="M419.901,328.252c-2.21,0-3.998,1.789-3.998,4v7.998c0,2.21,1.788,3.998,3.998,3.998c2.211,0,4-1.788,4-3.998v-7.998
			C423.901,330.041,422.112,328.252,419.901,328.252z"/>
	</g>
</g>
<g>
	<g>
		<path d="M403.905,312.255h-7.998c-2.21,0-3.999,1.789-3.999,3.999c0,2.211,1.789,3.999,3.999,3.999h7.998c2.211,0,4-1.788,4-3.999
			C407.905,314.044,406.116,312.255,403.905,312.255z"/>
	</g>
</g>
<g>
	<g>
		<path d="M443.896,312.255h-7.999c-2.21,0-3.998,1.789-3.998,3.999c0,2.211,1.788,3.999,3.998,3.999h7.999
			c2.21,0,3.999-1.788,3.999-3.999C447.895,314.044,446.106,312.255,443.896,312.255z"/>
	</g>
</g>
<g>
	<g>
		<path d="M411.418,302.118l-5.654-5.655c-1.562-1.562-4.093-1.562-5.655,0s-1.562,4.093,0,5.655l5.655,5.655
			c0.781,0.78,1.805,1.171,2.827,1.171c1.024,0,2.047-0.391,2.827-1.171C412.98,306.211,412.98,303.68,411.418,302.118z"/>
	</g>
</g>
<g>
	<g>
		<path d="M439.694,330.392l-5.655-5.655c-1.561-1.562-4.093-1.562-5.655,0s-1.562,4.093,0,5.655l5.655,5.654
			c0.781,0.781,1.805,1.172,2.827,1.172c1.023,0,2.047-0.39,2.828-1.172C441.256,334.485,441.256,331.954,439.694,330.392z"/>
	</g>
</g>
<g>
	<g>
		<path d="M411.418,324.737c-1.561-1.562-4.092-1.562-5.654,0l-5.655,5.655c-1.562,1.562-1.562,4.092,0,5.654
			c0.781,0.781,1.805,1.172,2.827,1.172c1.024,0,2.047-0.39,2.828-1.172l5.654-5.654C412.98,328.83,412.98,326.299,411.418,324.737z
			"/>
	</g>
</g>
<g>
	<g>
		<path d="M439.693,296.463c-1.562-1.562-4.093-1.562-5.655,0l-5.655,5.655c-1.562,1.561-1.562,4.093,0,5.655
			c0.781,0.78,1.805,1.171,2.828,1.171c1.024,0,2.046-0.391,2.827-1.171l5.655-5.655
			C441.255,300.556,441.255,298.025,439.693,296.463z"/>
	</g>
</g>
<g>
	<g>
		<path d="M100.219,312.255h-0.078c-2.21,0-3.96,1.789-3.96,3.999c0,2.211,1.828,3.999,4.038,3.999c2.21,0,3.999-1.788,3.999-3.999
			C104.218,314.044,102.429,312.255,100.219,312.255z"/>
	</g>
</g>
<g>
	<g>
		<path d="M99.977,272.266c-24.252,0-43.99,19.737-43.99,43.989c0,24.261,19.738,43.99,43.99,43.99
			c24.26,0,43.989-19.73,43.989-43.99C143.966,292.003,124.237,272.266,99.977,272.266z M99.977,352.245
			c-19.846,0-35.991-16.145-35.991-35.991s16.144-35.991,35.991-35.991c19.847,0,35.991,16.145,35.991,35.991
			S119.823,352.245,99.977,352.245z"/>
	</g>
</g>
<g>
	<g>
		<path d="M99.977,288.261c-2.21,0-3.999,1.789-3.999,3.999v7.998c0,2.211,1.789,3.999,3.999,3.999c2.211,0,3.999-1.788,3.999-3.999
			v-7.998C103.976,290.05,102.187,288.261,99.977,288.261z"/>
	</g>
</g>
<g>
	<g>
		<path d="M99.977,328.252c-2.21,0-3.999,1.789-3.999,4v7.998c0,2.21,1.789,3.998,3.999,3.998c2.211,0,3.999-1.788,3.999-3.998
			v-7.998C103.976,330.041,102.187,328.252,99.977,328.252z"/>
	</g>
</g>
<g>
	<g>
		<path d="M83.981,312.255h-7.998c-2.211,0-3.999,1.789-3.999,3.999c0,2.211,1.788,3.999,3.999,3.999h7.998
			c2.21,0,3.999-1.788,3.999-3.999C87.98,314.044,86.191,312.255,83.981,312.255z"/>
	</g>
</g>
<g>
	<g>
		<path d="M123.971,312.255h-7.998c-2.21,0-3.999,1.789-3.999,3.999c0,2.211,1.789,3.999,3.999,3.999h7.998
			c2.211,0,3.999-1.788,3.999-3.999C127.97,314.044,126.181,312.255,123.971,312.255z"/>
	</g>
</g>
<g>
	<g>
		<path d="M91.495,302.118l-5.655-5.655c-1.562-1.562-4.093-1.562-5.655,0s-1.562,4.093,0,5.655l5.655,5.655
			c0.781,0.78,1.805,1.171,2.828,1.171c1.022,0,2.045-0.391,2.827-1.171C93.057,306.211,93.057,303.68,91.495,302.118z"/>
	</g>
</g>
<g>
	<g>
		<path d="M119.769,330.392l-5.655-5.655c-1.562-1.562-4.093-1.562-5.655,0c-1.562,1.562-1.562,4.093,0,5.655l5.655,5.654
			c0.781,0.781,1.805,1.172,2.828,1.172s2.046-0.39,2.827-1.172C121.331,334.485,121.331,331.954,119.769,330.392z"/>
	</g>
</g>
<g>
	<g>
		<path d="M91.495,324.737c-1.562-1.562-4.093-1.562-5.655,0l-5.655,5.655c-1.562,1.562-1.562,4.092,0,5.654
			c0.781,0.781,1.804,1.172,2.827,1.172c1.024,0,2.047-0.39,2.828-1.172l5.655-5.654C93.057,328.83,93.057,326.299,91.495,324.737z"
			/>
	</g>
</g>
<g>
	<g>
		<path d="M119.77,296.463c-1.562-1.562-4.093-1.562-5.655,0l-5.655,5.655c-1.562,1.561-1.562,4.093,0,5.655
			c0.781,0.78,1.804,1.171,2.827,1.171s2.047-0.391,2.828-1.171l5.655-5.655C121.332,300.556,121.332,298.025,119.77,296.463z"/>
	</g>
</g>
<g>
	<g>
		<path d="M347.918,208.28H147.965c-23.143,0-51.73-15.458-51.847-28.033c-0.016-2.194-1.805-3.96-3.999-3.96
			c-0.008,0-0.023,0-0.039,0c-2.203,0.023-3.976,1.828-3.96,4.038c0.18,19.028,33.617,35.953,59.845,35.953h199.954
			c2.21,0,3.998-1.789,3.998-3.999C351.917,210.069,350.129,208.28,347.918,208.28z"/>
	</g>
</g>
<g>
	<g>
		<path d="M215.872,203.501l-7.998-39.991c-0.43-2.163-2.507-3.585-4.702-3.14c-2.164,0.438-3.57,2.539-3.14,4.71l7.998,39.99
			c0.383,1.898,2.054,3.21,3.921,3.21c0.258,0,0.523-0.023,0.789-0.077C214.903,207.773,216.31,205.664,215.872,203.501z"/>
	</g>
</g>
<g>
	<g>
		<path d="M235.945,232.275h-14.996c-2.211,0-3.999,1.788-3.999,3.999c0,2.21,1.788,3.999,3.999,3.999h14.996
			c2.21,0,3.999-1.789,3.999-3.999C239.944,234.063,238.155,232.275,235.945,232.275z"/>
	</g>
</g>
<g>
	<g>
		<path d="M123.471,232.275h-14.996c-2.21,0-3.999,1.788-3.999,3.999c0,2.21,1.789,3.999,3.999,3.999h14.996
			c2.211,0,3.999-1.789,3.999-3.999C127.47,234.063,125.682,232.275,123.471,232.275z"/>
	</g>
</g>
<g>
</g>
<g>
</g>
<g>
</g>
<g>
</g>
<g>
</g>
<g>
</g>
<g>
</g>
<g>
</g>
<g>
</g>
<g>
</g>
<g>
</g>
<g>
</g>
<g>
</g>
<g>
</g>
<g>
</g>
</svg>
