<?xml version="1.0" encoding="iso-8859-1"?>
<!-- Generator: Adobe Illustrator 19.0.0, SVG Export Plug-In . SVG Version: 6.00 Build 0)  -->
<svg version="1.1" id="Capa_1" xmlns="http://www.w3.org/2000/svg" xmlns:xlink="http://www.w3.org/1999/xlink" x="0px" y="0px"
	 viewBox="0 0 511.879 511.879" style="enable-background:new 0 0 511.879 511.879;" xml:space="preserve">
<g>
	<g>
		<path d="M96.216,302.533h-0.078c-2.21,0-3.96,1.788-3.96,3.999c0,2.21,1.831,3.999,4.038,3.999c2.21,0,3.999-1.789,3.999-3.999
			C100.215,304.321,98.426,302.533,96.216,302.533z"/>
	</g>
</g>
<g>
	<g>
		<path d="M51.989,314.53c-18.441-0.008-43.99-4.179-43.99-11.997V274.54h11.996c2.211,0,3.999-1.789,3.999-4
			c0-2.21-1.788-3.998-3.999-3.998H3.999c-2.21,0-3.999,1.788-3.999,3.998v31.993c0,19.034,43.307,19.995,51.988,19.995
			c2.207,0,3.999-1.789,4-3.999C55.988,316.326,54.199,314.53,51.989,314.53z"/>
	</g>
</g>
<g>
	<g>
		<path d="M502.248,250.825c-1.335-0.983-33.843-24.08-136.787-32.16c-6.358-5.05-40.99-31.126-94.525-44.97
			c-53.503-13.849-136.452-17.231-228.176,44.86H11.998c-2.21,0-3.999,1.789-3.999,3.999c0,2.21,1.789,3.999,3.999,3.999h31.993
			c0.804,0,1.589-0.242,2.253-0.695c171.303-116.796,313.695-1.413,315.109-0.23c0.64,0.531,1.429,0.852,2.249,0.914
			c101.078,7.775,133.61,30.509,133.922,30.739c0.718,0.516,1.538,0.766,2.358,0.766c1.227,0,2.437-0.566,3.218-1.633
			C504.412,254.633,504.029,252.13,502.248,250.825z"/>
	</g>
</g>
<g>
	<g>
		<path d="M499.882,250.049c-2.21,0-3.999,1.789-3.999,3.999v40.486c0,2.211,1.789,4,3.999,4s3.999-1.789,3.999-4v-40.486
			C503.881,251.838,502.092,250.049,499.882,250.049z"/>
	</g>
</g>
<g>
	<g>
		<path d="M95.978,266.542c-22.05,0-39.991,17.94-39.991,39.99c0,22.049,17.941,39.99,39.991,39.99
			c22.049,0,39.99-17.941,39.99-39.99C135.968,284.482,118.027,266.542,95.978,266.542z M95.978,338.524
			c-17.64,0-31.992-14.347-31.992-31.992c0-17.637,14.351-31.992,31.992-31.992s31.992,14.355,31.992,31.992
			C127.97,324.176,113.618,338.524,95.978,338.524z"/>
	</g>
</g>
<g>
	<g>
		<path d="M507.88,314.53h-55.986c-2.211,0-3.999,1.788-3.999,3.999c0,2.21,1.788,3.999,3.999,3.999h55.986
			c2.211,0,3.999-1.789,3.999-3.999C511.879,316.318,510.091,314.53,507.88,314.53z"/>
	</g>
</g>
<g>
	<g>
		<path d="M363.914,314.53H139.967c-2.21,0-3.999,1.788-3.999,3.999c0,2.21,1.789,3.999,3.999,3.999h223.948
			c2.211,0,3.999-1.789,3.998-3.999C367.913,316.318,366.125,314.53,363.914,314.53z"/>
	</g>
</g>
<g>
	<g>
		<path d="M11.998,218.557c-2.21,0-3.999,1.789-3.999,3.999v39.99c0,2.207,1.789,3.996,3.999,3.996c2.211,0,3.999-1.79,3.999-3.996
			v-39.99C15.997,220.346,14.209,218.557,11.998,218.557z"/>
	</g>
</g>
<g>
	<g>
		<path d="M35.996,226.444c-2.206,0-3.995,1.676-3.995,3.886c-0.195,1.461-2.956,4.222-12.005,4.222
			c-2.21,0-3.999,1.789-3.999,3.999c0,2.211,1.789,3.999,3.999,3.999c19.769,0,19.995-11.508,19.995-11.998
			C39.991,228.342,38.206,226.444,35.996,226.444z"/>
	</g>
</g>
<g>
	<g>
		<path d="M95.978,282.538c-2.21,0-3.999,1.788-3.999,3.998v7.998c0,2.211,1.789,4,3.999,4c2.211,0,3.999-1.789,3.999-4v-7.998
			C99.977,284.326,98.188,282.538,95.978,282.538z"/>
	</g>
</g>
<g>
	<g>
		<path d="M95.978,314.53c-2.21,0-3.999,1.788-3.999,3.999v7.998c0,2.21,1.789,3.999,3.999,3.999c2.211,0,3.999-1.789,3.999-3.999
			v-7.998C99.977,316.318,98.188,314.53,95.978,314.53z"/>
	</g>
</g>
<g>
	<g>
		<path d="M90.323,295.221l-5.654-5.654c-1.562-1.562-4.093-1.562-5.655,0c-1.562,1.562-1.562,4.092,0,5.654l5.655,5.655
			c0.781,0.781,1.804,1.172,2.827,1.172c1.023,0,2.046-0.39,2.827-1.172C91.885,299.315,91.885,296.783,90.323,295.221z"/>
	</g>
</g>
<g>
	<g>
		<path d="M112.942,317.842l-5.655-5.655c-1.562-1.562-4.093-1.562-5.655,0s-1.562,4.093,0,5.655l5.655,5.655
			c0.782,0.781,1.805,1.171,2.828,1.171s2.047-0.39,2.827-1.171C114.504,321.935,114.504,319.404,112.942,317.842z"/>
	</g>
</g>
<g>
	<g>
		<path d="M83.981,302.533h-7.998c-2.211,0-3.999,1.788-3.999,3.999c0,2.21,1.788,3.999,3.999,3.999h7.998
			c2.21,0,3.999-1.789,3.999-3.999C87.98,304.321,86.191,302.533,83.981,302.533z"/>
	</g>
</g>
<g>
	<g>
		<path d="M115.973,302.533h-7.998c-2.21,0-3.999,1.788-3.999,3.999c0,2.21,1.789,3.999,3.999,3.999h7.998
			c2.211,0,3.999-1.789,3.999-3.999C119.972,304.321,118.183,302.533,115.973,302.533z"/>
	</g>
</g>
<g>
	<g>
		<path d="M90.322,312.187c-1.561-1.562-4.092-1.562-5.654,0l-5.655,5.655c-1.562,1.561-1.562,4.093,0,5.655
			c0.781,0.781,1.804,1.171,2.827,1.171c1.024,0,2.047-0.39,2.828-1.171l5.654-5.655C91.884,316.28,91.884,313.749,90.322,312.187z"
			/>
	</g>
</g>
<g>
	<g>
		<path d="M112.943,289.567c-1.562-1.562-4.093-1.562-5.655,0l-5.655,5.654c-1.562,1.562-1.562,4.093,0,5.655
			c0.782,0.781,1.805,1.172,2.828,1.172s2.046-0.39,2.827-1.172l5.655-5.655C114.505,293.66,114.505,291.129,112.943,289.567z"/>
	</g>
</g>
<g>
	<g>
		<path d="M407.905,266.542c-22.05,0-39.991,17.94-39.991,39.99c0,22.049,17.941,39.99,39.991,39.99
			c22.049,0,39.99-17.941,39.99-39.99C447.895,284.482,429.954,266.542,407.905,266.542z M407.905,338.524
			c-17.637,0-31.993-14.347-31.993-31.992c0-17.637,14.356-31.992,31.993-31.992c17.636,0,31.992,14.355,31.992,31.992
			C439.897,324.176,425.541,338.524,407.905,338.524z"/>
	</g>
</g>
<g>
	<g>
		<path d="M408.138,302.533h-0.078c-2.202,0-3.952,1.788-3.952,3.999c0,2.21,1.828,3.999,4.03,3.999
			c2.219,0,3.999-1.789,3.999-3.999C412.137,304.321,410.357,302.533,408.138,302.533z"/>
	</g>
</g>
<g>
	<g>
		<path d="M407.905,282.538c-2.211,0-4,1.788-4,3.998v7.998c0,2.211,1.789,4,4,4c2.21,0,3.998-1.789,3.998-4v-7.998
			C411.903,284.326,410.115,282.538,407.905,282.538z"/>
	</g>
</g>
<g>
	<g>
		<path d="M407.905,314.53c-2.211,0-4,1.788-4,3.999v7.998c0,2.21,1.789,3.999,4,3.999c2.21,0,3.998-1.789,3.998-3.999v-7.998
			C411.903,316.318,410.115,314.53,407.905,314.53z"/>
	</g>
</g>
<g>
	<g>
		<path d="M402.249,295.221l-5.655-5.654c-1.562-1.562-4.092-1.562-5.654,0c-1.562,1.562-1.562,4.092,0,5.654l5.654,5.655
			c0.781,0.781,1.805,1.172,2.828,1.172s2.046-0.39,2.827-1.172C403.811,299.315,403.811,296.783,402.249,295.221z"/>
	</g>
</g>
<g>
	<g>
		<path d="M424.869,317.842l-5.654-5.655c-1.562-1.562-4.093-1.562-5.655,0s-1.562,4.093,0,5.655l5.655,5.655
			c0.78,0.781,1.804,1.171,2.827,1.171s2.046-0.39,2.827-1.171C426.431,321.935,426.431,319.404,424.869,317.842z"/>
	</g>
</g>
<g>
	<g>
		<path d="M395.907,302.533h-7.998c-2.21,0-3.999,1.788-3.999,3.999c0,2.21,1.789,3.999,3.999,3.999h7.998
			c2.211,0,3.999-1.789,3.999-3.999C399.906,304.321,398.118,302.533,395.907,302.533z"/>
	</g>
</g>
<g>
	<g>
		<path d="M427.899,302.533h-7.998c-2.21,0-3.998,1.788-3.998,3.999c0,2.21,1.788,3.999,3.998,3.999h7.998c2.211,0,4-1.789,4-3.999
			C431.899,304.321,430.11,302.533,427.899,302.533z"/>
	</g>
</g>
<g>
	<g>
		<path d="M402.249,312.187c-1.562-1.562-4.093-1.562-5.655,0l-5.654,5.655c-1.562,1.561-1.562,4.093,0,5.655
			c0.78,0.781,1.804,1.171,2.827,1.171s2.046-0.39,2.827-1.171l5.655-5.655C403.811,316.28,403.811,313.749,402.249,312.187z"/>
	</g>
</g>
<g>
	<g>
		<path d="M424.868,289.567c-1.561-1.562-4.092-1.562-5.654,0l-5.655,5.654c-1.562,1.562-1.562,4.093,0,5.655
			c0.781,0.781,1.805,1.172,2.827,1.172c1.024,0,2.047-0.39,2.828-1.172l5.654-5.655C426.43,293.66,426.43,291.129,424.868,289.567z
			"/>
	</g>
</g>
<g>
	<g>
		<path d="M339.92,218.556H67.985c-2.211,0-3.999,1.789-3.999,3.999c0,2.21,1.788,3.999,3.999,3.999H339.92
			c2.21,0,3.999-1.789,3.999-3.999C343.919,220.345,342.13,218.556,339.92,218.556z"/>
	</g>
</g>
<g>
	<g>
		<path d="M227.947,178.566c-2.21,0-3.999,1.788-3.999,3.999v23.994c0,2.21,1.789,3.999,3.999,3.999c2.21,0,3.999-1.789,3.999-3.999
			v-23.994C231.946,180.354,230.157,178.566,227.947,178.566z"/>
	</g>
</g>
<g>
	<g>
		<path d="M123.971,194.562c-2.21,0-3.999,1.789-3.999,3.999v7.998c0,2.21,1.789,3.999,3.999,3.999c2.211,0,3.999-1.789,3.999-3.999
			v-7.998C127.97,196.351,126.181,194.562,123.971,194.562z"/>
	</g>
</g>
<g>
	<g>
		<path d="M147.965,242.55h-15.996c-2.21,0-3.999,1.789-3.999,3.999c0,2.211,1.789,3.999,3.999,3.999h15.996
			c2.211,0,4-1.788,4-3.999C151.965,244.339,150.176,242.55,147.965,242.55z"/>
	</g>
</g>
<g>
	<g>
		<path d="M259.939,242.55h-15.992c-2.21,0-3.999,1.789-3.999,3.999c0,2.211,1.789,3.999,3.999,3.999h15.992
			c2.211,0,3.999-1.788,3.999-3.999C263.938,244.339,262.15,242.55,259.939,242.55z"/>
	</g>
</g>
<g>
	<g>
		<path d="M493.15,258.754l-23.995-7.998c-2.109-0.696-4.358,0.433-5.061,2.526c-0.696,2.098,0.437,4.364,2.53,5.058l23.994,7.999
			c0.422,0.141,0.844,0.203,1.266,0.203c1.672,0,3.234-1.055,3.796-2.73C496.376,261.714,495.243,259.449,493.15,258.754z"/>
	</g>
</g>
<g>
	<g>
		<path d="M467.89,242.55c-2.21,0-3.999,1.789-3.999,3.999v7.998c0,2.211,1.789,3.999,3.999,3.999c2.21,0,3.999-1.788,3.999-3.999
			v-7.998C471.889,244.339,470.1,242.55,467.89,242.55z"/>
	</g>
</g>
<g>
	<g>
		<path d="M507.88,298.534c-2.21,0-3.999,1.788-3.999,3.999v15.996c0,2.21,1.789,3.999,3.999,3.999c2.211,0,3.999-1.789,3.999-3.999
			v-15.996C511.879,300.322,510.091,298.534,507.88,298.534z"/>
	</g>
</g>
<g>
</g>
<g>
</g>
<g>
</g>
<g>
</g>
<g>
</g>
<g>
</g>
<g>
</g>
<g>
</g>
<g>
</g>
<g>
</g>
<g>
</g>
<g>
</g>
<g>
</g>
<g>
</g>
<g>
</g>
</svg>
