<?xml version="1.0" encoding="iso-8859-1"?>
<!-- Generator: Adobe Illustrator 19.0.0, SVG Export Plug-In . SVG Version: 6.00 Build 0)  -->
<svg version="1.1" id="Capa_1" xmlns="http://www.w3.org/2000/svg" xmlns:xlink="http://www.w3.org/1999/xlink" x="0px" y="0px"
	 viewBox="0 0 512 512" style="enable-background:new 0 0 512 512;" xml:space="preserve">
<g>
	<g>
		<g>
			<path d="M501.333,234.667h-65.28C428.738,211.496,408.203,195,384,192.853V32c0-17.673-14.327-32-32-32H32
				C14.327,0,0,14.327,0,32v224c0,17.673,14.327,32,32,32h96v21.333c0,5.891,4.776,10.667,10.667,10.667h10.667v181.333
				c0,5.891,4.776,10.667,10.667,10.667h320c5.891,0,10.667-4.776,10.667-10.667V320h10.667c5.891,0,10.667-4.776,10.667-10.667v-64
				C512,239.442,507.224,234.667,501.333,234.667z M373.333,213.333c16.277-0.943,31.715,7.291,40,21.333h-80
				C341.618,220.624,357.057,212.39,373.333,213.333z M138.667,234.667c-5.891,0-10.667,4.776-10.667,10.667v21.333H32
				c-5.891,0-10.667-4.776-10.667-10.667V32c0-5.891,4.776-10.667,10.667-10.667h320c5.891,0,10.667,4.776,10.667,10.667v160.853
				C346.025,194.882,330.774,203.155,320,216c-13.258-15.621-32.849-24.436-53.333-24c-30.933,0-56.747,18.347-62.72,42.667H138.667
				z M306.667,234.667h-80c8.285-14.042,23.723-22.276,40-21.333C282.943,212.39,298.382,220.624,306.667,234.667z M277.333,490.667
				H170.667V320h106.667V490.667z M341.333,490.667h-42.667V320h42.667V490.667z M469.333,490.667H362.667V320h106.667V490.667z
				 M490.667,298.667H149.333V256h341.333V298.667z"/>
			<path d="M96,149.333c17.673,0,32-14.327,32-32c0-17.673-14.327-32-32-32s-32,14.327-32,32C64,135.006,78.327,149.333,96,149.333z
				 M96,106.667c5.891,0,10.667,4.776,10.667,10.667c0,5.891-4.776,10.667-10.667,10.667s-10.667-4.776-10.667-10.667
				C85.333,111.442,90.109,106.667,96,106.667z"/>
			<path d="M160,149.333c-17.673,0-32,14.327-32,32c0,17.673,14.327,32,32,32s32-14.327,32-32
				C192,163.66,177.673,149.333,160,149.333z M160,192c-5.891,0-10.667-4.776-10.667-10.667c0-5.891,4.776-10.667,10.667-10.667
				s10.667,4.776,10.667,10.667C170.667,187.224,165.891,192,160,192z"/>
			
				<rect x="55.305" y="136.007" transform="matrix(0.7071 -0.7071 0.7071 0.7071 -65.4275 135.3917)" width="150.827" height="21.333"/>
			<rect x="277.333" y="42.667" width="64" height="21.333"/>
			<rect x="277.333" y="85.333" width="64" height="21.333"/>
			<rect x="42.667" y="42.667" width="21.333" height="21.333"/>
		</g>
	</g>
</g>
<g>
</g>
<g>
</g>
<g>
</g>
<g>
</g>
<g>
</g>
<g>
</g>
<g>
</g>
<g>
</g>
<g>
</g>
<g>
</g>
<g>
</g>
<g>
</g>
<g>
</g>
<g>
</g>
<g>
</g>
</svg>
