<svg id="color" enable-background="new 0 0 24 24" height="512" viewBox="0 0 24 24" width="512" xmlns="http://www.w3.org/2000/svg"><path d="m23.954 9.086c-.087-.237-.288-.415-.534-.473l-6.956-1.614-3.814-6.623c-.27-.465-1.031-.465-1.301 0l-3.813 6.623-6.956 1.614c-.246.058-.447.236-.534.473-.087.238-.048.504.103.707l4.671 6.243-1.507 7.058c-.06.279.045.569.27.746.226.177.531.211.789.085l7.628-3.686 7.627 3.686c.103.051.215.075.326.075.165 0 .328-.055.463-.16.226-.177.33-.467.271-.746l-1.507-7.058 4.671-6.243c.151-.203.19-.469.103-.707z" fill="#f44336"/><path d="m12 .027c-.258 0-.516.116-.65.349l-3.814 6.623-6.956 1.614c-.246.058-.447.236-.534.473-.087.238-.048.504.103.707l4.671 6.243-1.507 7.058c-.06.279.045.569.27.746.13.102.287.156.446.16h.034c.105-.002.21-.027.309-.075l7.628-3.686z" fill="#d43a2f"/><g fill="#fafafa"><path d="m9 16c-.31 0-.587-.189-.699-.479l-1.75-4.5c-.15-.386.041-.82.428-.971.384-.147.821.041.971.428l1.05 2.703 1.051-2.702c.15-.387.59-.575.971-.428.387.15.578.585.428.971l-1.75 4.5c-.113.289-.39.478-.7.478z"/><path d="m12.75 16c-.414 0-.75-.336-.75-.75v-4.5c0-.414.336-.75.75-.75s.75.336.75.75v4.5c0 .414-.336.75-.75.75z"/><path d="m15 16c-.414 0-.75-.336-.75-.75v-4.5c0-.414.336-.75.75-.75s.75.336.75.75v4.5c0 .414-.336.75-.75.75z"/><path d="m16.25 14h-1.25c-.414 0-.75-.336-.75-.75v-2.5c0-.414.336-.75.75-.75h1.25c1.103 0 2 .897 2 2s-.897 2-2 2zm-.5-1.5h.5c.275 0 .5-.225.5-.5s-.225-.5-.5-.5h-.5z"/></g><path d="m10.66 13.05h-1.61l-.05.131-.051-.131h-1.609l.961 2.472c.112.289.389.478.699.478s.587-.189.699-.479z" fill="#dadada"/><path d="m13.5 13.05h-1.5v2.2c0 .414.336.75.75.75s.75-.336.75-.75z" fill="#dadada"/><path d="m14.25 13.05v2.2c0 .414.336.75.75.75s.75-.336.75-.75v-1.25h-.75c-.414 0-.75-.336-.75-.75z" fill="#dadada"/><path d="m17.952 13.05h-3.702v.2c0 .414.336.75.75.75h.75.5c.718 0 1.349-.38 1.702-.95z" fill="#dadada"/></svg>