<svg height="512pt" viewBox="0 0 512 512" width="512pt" xmlns="http://www.w3.org/2000/svg"><path d="m437.019531 74.980469c-48.351562-48.351563-112.640625-74.980469-181.019531-74.980469s-132.667969 26.628906-181.019531 74.980469c-48.351563 48.351562-74.980469 112.640625-74.980469 181.019531s26.628906 132.667969 74.980469 181.019531c48.351562 48.351563 112.640625 74.980469 181.019531 74.980469s132.667969-26.628906 181.019531-74.980469c48.351563-48.351562 74.980469-112.640625 74.980469-181.019531s-26.628906-132.667969-74.980469-181.019531zm-181.019531 407.019531c-124.921875 0-226-101.097656-226-226 0-124.921875 101.097656-226 226-226 124.921875 0 226 101.097656 226 226 0 124.921875-101.097656 226-226 226zm0 0"/><path d="m256 436.929688c-24.851562 0-45-20.148438-45-45v-160c0-24.855469 20.148438-45 45-45 24.855469 0 45 20.144531 45 44.996093v160.003907c0 24.851562-20.148438 45-45 45zm0-30c8.285156 0 15-6.71875 15-15v-160c0-8.285157-6.714844-15-15-15s-15 6.714843-15 15v160c0 8.28125 6.714844 15 15 15zm0 0"/><path d="m256 165.070312c-24.8125 0-45-20.183593-45-45 0-24.8125 20.1875-45 45-45s45 20.1875 45 45c0 24.816407-20.1875 45-45 45zm0-60c-8.269531 0-15 6.730469-15 15 0 8.273438 6.730469 15 15 15s15-6.726562 15-15c0-8.269531-6.730469-15-15-15zm0 0"/></svg>