<?xml version="1.0" encoding="iso-8859-1"?>
<!-- Generator: Adobe Illustrator 19.0.0, SVG Export Plug-In . SVG Version: 6.00 Build 0)  -->
<svg version="1.1" id="Capa_1" xmlns="http://www.w3.org/2000/svg" xmlns:xlink="http://www.w3.org/1999/xlink" x="0px" y="0px"
	 viewBox="0 0 511.878 511.878" style="enable-background:new 0 0 511.878 511.878;" xml:space="preserve">
<g>
	<g>
		<path d="M487.681,242.676c-0.352-1.042-8.725-25.666-26.01-34.304c-15.356-7.674-93.251-8.361-111.044-8.416l-30.984-77.47
			c-0.61-1.519-2.078-2.515-3.718-2.515H59.986c-2.211,0-4,1.789-4,3.999c0,2.21,1.789,3.999,4,3.999h253.235l30.978,77.466
			c0.61,1.519,2.077,2.515,3.718,2.515c26.432,0,97.742,1.363,110.177,7.577c14.309,7.15,21.925,29.457,21.995,29.684
			c0.563,1.671,2.125,2.73,3.796,2.73c0.422,0,0.844-0.066,1.266-0.207C487.243,247.034,488.376,244.77,487.681,242.676z"/>
	</g>
</g>
<g>
	<g>
		<path d="M355.916,319.923h-167.96c-2.211,0-3.999,1.789-3.999,4c0,2.21,1.788,3.998,3.999,3.998h167.96
			c2.211,0,3.999-1.788,3.999-3.998C359.915,321.712,358.127,319.923,355.916,319.923z"/>
	</g>
</g>
<g>
	<g>
		<path d="M507.879,279.933h-47.652c-2.211,0-3.999,1.789-3.999,3.999c0,2.211,1.788,3.999,3.999,3.999h47.652
			c2.211,0,3.999-1.788,3.999-3.999C511.878,281.722,510.09,279.933,507.879,279.933z"/>
	</g>
</g>
<g>
	<g>
		<path d="M507.879,279.933c-2.21,0-3.999,1.789-3.999,3.999v23.994c0,2.211,1.789,3.999,3.999,3.999
			c2.211,0,3.999-1.788,3.999-3.999v-23.994C511.878,281.722,510.09,279.933,507.879,279.933z"/>
	</g>
</g>
<g>
	<g>
		<path d="M507.879,303.927h-31.992c-2.21,0-3.999,1.789-3.999,3.999c0,2.211,1.789,3.999,3.999,3.999h31.992
			c2.211,0,3.999-1.788,3.999-3.999C511.878,305.716,510.09,303.927,507.879,303.927z"/>
	</g>
</g>
<g>
	<g>
		<path d="M43.989,295.929H27.993c-2.211,0-4,1.789-4,3.999c0,2.211,1.79,3.999,4,3.999h15.996c2.211,0,3.999-1.788,3.999-3.999
			C47.988,297.718,46.199,295.929,43.989,295.929z"/>
	</g>
</g>
<g>
	<g>
		<path d="M27.993,295.929c-2.211,0-4,1.789-4,3.999v23.995c0,2.21,1.79,3.998,4,3.998c2.211,0,3.999-1.788,3.999-3.998v-23.995
			C31.992,297.718,30.204,295.929,27.993,295.929z"/>
	</g>
</g>
<g>
	<g>
		<path d="M67.984,319.923H27.993c-2.211,0-4,1.789-4,4c0,2.21,1.79,3.998,4,3.998h39.991c2.21,0,3.999-1.788,3.999-3.998
			C71.983,321.712,70.194,319.923,67.984,319.923z"/>
	</g>
</g>
<g>
	<g>
		<path d="M51.987,223.947h-7.998c-2.21,0-3.999,1.788-3.999,3.999c0,2.21,1.789,3.999,3.999,3.999h7.998
			c2.211,0,3.999-1.789,3.999-3.999C55.986,225.735,54.197,223.947,51.987,223.947z"/>
	</g>
</g>
<g>
	<g>
		<path d="M51.987,223.947c-2.21,0-3.999,1.788-3.999,3.999v39.99c0,2.21,1.789,3.999,3.999,3.999c2.211,0,3.999-1.789,3.999-3.999
			v-39.99C55.986,225.735,54.197,223.947,51.987,223.947z"/>
	</g>
</g>
<g>
	<g>
		<path d="M51.987,263.937h-7.998c-2.21,0-3.999,1.789-3.999,3.999c0,2.21,1.789,3.999,3.999,3.999h7.998
			c2.211,0,3.999-1.789,3.999-3.999C55.986,265.726,54.197,263.937,51.987,263.937z"/>
	</g>
</g>
<g>
	<g>
		<path d="M235.944,223.947H211.95c-2.21,0-3.999,1.788-3.999,3.999c0,2.21,1.789,3.999,3.999,3.999h23.994
			c2.21,0,3.999-1.789,3.999-3.999C239.943,225.735,238.154,223.947,235.944,223.947z"/>
	</g>
</g>
<g>
	<g>
		<path d="M27.994,167.96H11.997c-2.21,0-3.999,1.789-3.999,3.999c0,2.211,1.789,3.999,3.999,3.999h15.996
			c2.211,0,3.999-1.789,4-3.999C31.993,169.749,30.204,167.96,27.994,167.96z"/>
	</g>
</g>
<g>
	<g>
		<path d="M3.999,175.958c-2.21,0-3.999,1.789-3.999,3.999v87.979c0,2.21,1.789,3.999,3.999,3.999c2.211,0,3.999-1.789,3.999-3.999
			v-87.979C7.998,177.747,6.21,175.958,3.999,175.958z"/>
	</g>
</g>
<g>
	<g>
		<path d="M26.654,271.935H11.997c-2.21,0-3.999,1.789-3.999,3.999c0,2.21,1.789,3.999,3.999,3.999h14.657
			c2.21,0,3.999-1.789,3.999-3.999C30.653,273.724,28.864,271.935,26.654,271.935z"/>
	</g>
</g>
<g>
	<g>
		<path d="M35.991,143.965c-2.21,0-3.999,1.789-3.999,3.999v151.964c0,2.211,1.789,3.999,3.999,3.999
			c2.211,0,3.999-1.788,3.999-3.999V147.964C39.99,145.754,38.201,143.965,35.991,143.965z"/>
	</g>
</g>
<g>
	<g>
		<path d="M22.823,249.112c-1.562-1.562-4.093-1.562-5.655,0l-7.998,7.999c-1.562,1.561-1.562,4.092,0,5.654
			c0.781,0.781,1.804,1.172,2.827,1.172s2.046-0.391,2.827-1.172l7.999-7.998C24.385,253.205,24.385,250.674,22.823,249.112z"/>
	</g>
</g>
<g>
	<g>
		<path d="M22.823,233.116c-1.562-1.562-4.093-1.562-5.655,0l-7.998,7.998c-1.562,1.562-1.562,4.093,0,5.655
			c0.781,0.781,1.804,1.172,2.827,1.172s2.046-0.391,2.827-1.172l7.999-7.998C24.385,237.209,24.385,234.678,22.823,233.116z"/>
	</g>
</g>
<g>
	<g>
		<path d="M22.823,217.119c-1.562-1.562-4.093-1.562-5.655,0l-7.998,7.999c-1.562,1.562-1.562,4.093,0,5.655
			c0.781,0.781,1.804,1.172,2.827,1.172s2.046-0.391,2.827-1.173l7.999-7.998C24.385,221.212,24.385,218.681,22.823,217.119z"/>
	</g>
</g>
<g>
	<g>
		<path d="M22.823,201.124c-1.562-1.562-4.093-1.562-5.655,0l-7.998,7.998c-1.562,1.562-1.562,4.093,0,5.655
			c0.781,0.781,1.804,1.172,2.827,1.172s2.046-0.391,2.827-1.172l7.999-7.998C24.385,205.217,24.385,202.686,22.823,201.124z"/>
	</g>
</g>
<g>
	<g>
		<path d="M22.823,185.128c-1.562-1.562-4.093-1.562-5.655,0l-7.998,7.998c-1.562,1.562-1.562,4.093,0,5.655
			c0.781,0.78,1.804,1.171,2.827,1.171s2.046-0.39,2.827-1.171l7.999-7.998C24.385,189.221,24.385,186.69,22.823,185.128z"/>
	</g>
</g>
<g>
	<g>
		<path d="M11.997,271.935c-2.206,0-3.999-1.797-3.999-3.999c0-2.21-1.788-3.999-3.999-3.999c-2.21,0-3.999,1.789-3.999,3.999
			c0,6.616,5.382,11.997,11.997,11.997c2.211,0,3.999-1.789,3.999-3.999C15.996,273.724,14.208,271.935,11.997,271.935z"/>
	</g>
</g>
<g>
	<g>
		<path d="M11.997,167.959C5.382,167.959,0,173.341,0,179.956c0,2.211,1.789,4,3.999,4c2.211,0,3.999-1.788,3.999-4
			c0-2.206,1.793-3.999,3.999-3.999c2.211,0,3.999-1.788,3.999-3.999C15.996,169.748,14.208,167.959,11.997,167.959z"/>
	</g>
</g>
<g>
	<g>
		<path d="M187.956,143.965H59.986c-2.211,0-4,1.789-4,3.999v55.987c0,2.21,1.789,3.999,4,3.999h127.97
			c2.21,0,3.999-1.788,3.999-3.999v-55.987C191.955,145.754,190.166,143.965,187.956,143.965z M183.957,199.952H63.985v-47.989
			h119.972V199.952z"/>
	</g>
</g>
<g>
	<g>
		<path d="M319.479,201.838l-15.708-54.972c-0.484-1.717-2.062-2.901-3.842-2.901H211.95c-2.21,0-3.999,1.789-3.999,3.999v55.987
			c0,2.21,1.789,3.999,3.999,3.999h103.976c0.054,0,0.109-0.004,0.156,0c2.21,0,3.999-1.788,3.999-3.999
			C320.081,203.174,319.862,202.451,319.479,201.838z M215.949,199.952v-47.989h80.965l13.708,47.989H215.949z"/>
	</g>
</g>
<g>
	<g>
		<path d="M59.986,119.971c-15.434,0-27.994,12.559-27.994,27.993c0,2.21,1.789,3.999,3.999,3.999c2.211,0,3.999-1.788,3.999-3.999
			c0-11.024,8.971-19.995,19.996-19.995c2.21,0,3.999-1.789,3.999-3.999S62.196,119.971,59.986,119.971z"/>
	</g>
</g>
<g>
	<g>
		<path d="M199.383,297.875l-23.994-39.99c-0.722-1.211-2.023-1.945-3.429-1.945H83.981c-1.407,0-2.707,0.734-3.429,1.945
			l-23.995,39.99c-0.742,1.234-0.761,2.772-0.051,4.022c0.71,1.257,2.039,2.03,3.48,2.03h15.996c1.335,0,2.585-0.672,3.327-1.78
			l14.809-22.214h67.703l14.809,22.214c0.742,1.108,1.992,1.78,3.327,1.78h15.997c1.44,0,2.768-0.773,3.48-2.03
			C200.145,300.647,200.125,299.109,199.383,297.875z M182.097,295.929l-14.808-22.213c-0.743-1.109-1.993-1.781-3.328-1.781H91.978
			c-1.336,0-2.585,0.672-3.327,1.781l-14.81,22.213H67.05l19.195-31.992h83.449l19.195,31.992H182.097z"/>
	</g>
</g>
<g>
	<g>
		<path d="M127.973,279.934c-30.871,0-55.99,25.119-55.99,55.986c0,30.868,25.119,55.987,55.99,55.987
			c30.872,0,55.987-25.119,55.987-55.987C183.96,305.053,158.845,279.934,127.973,279.934z M127.973,383.908
			c-26.462,0-47.992-21.526-47.992-47.989c0-26.462,21.53-47.988,47.992-47.988c26.463,0,47.989,21.527,47.989,47.988
			C175.962,362.382,154.436,383.908,127.973,383.908z"/>
	</g>
</g>
<g>
	<g>
		<path d="M127.973,303.928c-17.644,0-31.996,14.348-31.996,31.992c0,17.644,14.352,31.993,31.996,31.993
			c17.641,0,31.989-14.349,31.989-31.993C159.962,318.277,145.614,303.928,127.973,303.928z M127.973,359.914
			c-13.231,0-23.998-10.764-23.998-23.995c0-13.23,10.767-23.994,23.998-23.994c13.228,0,23.991,10.764,23.991,23.994
			C151.964,349.15,141.201,359.914,127.973,359.914z"/>
	</g>
</g>
<g>
	<g>
		<path d="M127.973,323.924c-6.615,0-12.001,5.381-12.001,11.996c0,6.616,5.386,11.998,12.001,11.998
			c6.612,0,11.993-5.382,11.993-11.998C139.966,329.305,134.585,323.924,127.973,323.924z M127.973,339.919
			c-2.206,0-4.003-1.797-4.003-4c0-2.202,1.797-3.998,4.003-3.998c2.203,0,3.995,1.796,3.995,3.998
			C131.968,338.122,130.176,339.919,127.973,339.919z"/>
	</g>
</g>
<g>
	<g>
		<path d="M134.796,297.101l-7.998-7.998c-1.562-1.562-4.093-1.562-5.655,0c-1.562,1.562-1.562,4.092,0,5.654l7.998,7.998
			c0.781,0.781,1.804,1.172,2.827,1.172c1.024,0,2.047-0.39,2.828-1.172C136.358,301.194,136.358,298.663,134.796,297.101z"/>
	</g>
</g>
<g>
	<g>
		<path d="M134.796,377.082l-7.998-7.998c-1.562-1.562-4.093-1.562-5.655,0c-1.562,1.562-1.562,4.093,0,5.655l7.998,7.998
			c0.781,0.781,1.804,1.172,2.827,1.172c1.024,0,2.047-0.391,2.828-1.172C136.358,381.176,136.358,378.644,134.796,377.082z"/>
	</g>
</g>
<g>
	<g>
		<path d="M114.468,298.883l-10.919-2.93c-2.116-0.508-4.323,0.703-4.897,2.828c-0.573,2.132,0.692,4.326,2.828,4.904l10.919,2.93
			c0.348,0.086,0.695,0.133,1.039,0.133c1.765,0,3.378-1.18,3.858-2.961C117.87,301.655,116.604,299.461,114.468,298.883z"/>
	</g>
</g>
<g>
	<g>
		<path d="M154.458,368.147l-10.919-2.929c-2.132-0.516-4.323,0.702-4.897,2.827c-0.573,2.132,0.692,4.327,2.828,4.905l10.919,2.929
			c0.348,0.086,0.695,0.133,1.039,0.133c1.765,0,3.378-1.179,3.857-2.96C157.859,370.919,156.594,368.725,154.458,368.147z"/>
	</g>
</g>
<g>
	<g>
		<path d="M102.659,313.426c-0.566-2.141-2.765-3.343-4.897-2.835l-10.919,2.921c-2.132,0.57-3.397,2.764-2.827,4.897
			c0.476,1.788,2.092,2.968,3.858,2.968c0.343,0,0.691-0.047,1.039-0.133l10.919-2.921
			C101.964,317.753,103.229,315.559,102.659,313.426z"/>
	</g>
</g>
<g>
	<g>
		<path d="M171.924,353.416c-0.57-2.132-2.75-3.358-4.897-2.835l-10.92,2.921c-2.132,0.57-3.397,2.765-2.827,4.897
			c0.476,1.789,2.093,2.968,3.858,2.968c0.344,0,0.692-0.047,1.039-0.133l10.919-2.921
			C171.229,357.743,172.494,355.549,171.924,353.416z"/>
	</g>
</g>
<g>
	<g>
		<path d="M94.801,329.094c-1.562-1.562-4.093-1.562-5.655,0l-7.998,7.982c-1.566,1.554-1.566,4.093-0.008,5.655
			c0.781,0.781,1.809,1.172,2.832,1.172s2.042-0.391,2.823-1.172l7.998-7.982C96.36,333.195,96.36,330.656,94.801,329.094z"/>
	</g>
</g>
<g>
	<g>
		<path d="M174.782,329.094c-1.562-1.562-4.093-1.562-5.655,0l-7.998,7.982c-1.566,1.554-1.566,4.093-0.008,5.655
			c0.782,0.781,1.809,1.172,2.832,1.172c1.023,0,2.043-0.391,2.823-1.172l7.998-7.982
			C176.34,333.195,176.34,330.656,174.782,329.094z"/>
	</g>
</g>
<g>
	<g>
		<path d="M95.837,346.598c-2.124-0.563-4.323,0.679-4.901,2.819l-2.937,10.912c-0.574,2.131,0.691,4.327,2.823,4.897
			c0.348,0.094,0.699,0.141,1.043,0.141c1.761,0,3.378-1.172,3.858-2.961l2.937-10.911
			C99.234,349.363,97.969,347.168,95.837,346.598z"/>
	</g>
</g>
<g>
	<g>
		<path d="M165.101,306.608c-2.116-0.571-4.327,0.679-4.901,2.819l-2.937,10.911c-0.574,2.132,0.692,4.327,2.824,4.897
			c0.347,0.094,0.698,0.141,1.042,0.141c1.762,0,3.378-1.171,3.859-2.96l2.937-10.912
			C168.498,309.373,167.234,307.178,165.101,306.608z"/>
	</g>
</g>
<g>
	<g>
		<path d="M113.286,374.973l-2.906-10.919c-0.566-2.133-2.749-3.422-4.893-2.836c-2.137,0.57-3.406,2.757-2.84,4.897l2.906,10.919
			c0.477,1.789,2.093,2.969,3.863,2.969c0.339,0,0.687-0.039,1.031-0.133C112.583,379.3,113.852,377.113,113.286,374.973z"/>
	</g>
</g>
<g>
	<g>
		<path d="M153.277,305.709l-2.905-10.92c-0.567-2.132-2.769-3.413-4.894-2.835c-2.136,0.57-3.405,2.756-2.839,4.897l2.905,10.92
			c0.476,1.788,2.093,2.968,3.862,2.968c0.34,0,0.687-0.039,1.032-0.133C152.574,310.036,153.843,307.849,153.277,305.709z"/>
	</g>
</g>
<g>
	<g>
		<path d="M143.961,308.207c-4.858-2.796-10.38-4.28-15.965-4.28c-11.415,0-22.041,6.132-27.735,15.996
			c-4.272,7.397-5.409,16.019-3.194,24.275c2.214,8.256,7.506,15.161,14.906,19.426c4.859,2.812,10.377,4.296,15.965,4.296
			c11.408,0,22.034-6.131,27.731-16.004C164.483,336.638,159.231,317.033,143.961,308.207z M148.743,347.917
			c-4.273,7.404-12.243,12.005-20.804,12.005c-4.183,0-8.322-1.117-11.966-3.218c-5.55-3.203-9.521-8.381-11.181-14.575
			c-1.661-6.194-0.809-12.653,2.397-18.206c4.269-7.397,12.244-11.998,20.808-11.998c4.186,0,8.326,1.11,11.971,3.211
			C151.418,321.759,155.355,336.458,148.743,347.917z"/>
	</g>
</g>
<g>
	<g>
		<path d="M155.662,319.931c-5.698-9.872-16.328-15.996-27.744-15.996c-5.577,0-11.095,1.476-15.953,4.28
			c-15.277,8.826-20.526,28.43-11.704,43.701c5.686,9.872,16.313,16.004,27.728,16.004c5.589,0,11.115-1.484,15.973-4.288
			c7.397-4.264,12.688-11.162,14.899-19.41C161.075,335.958,159.938,327.336,155.662,319.931z M151.135,342.152
			c-1.659,6.187-5.623,11.349-11.169,14.552c-3.648,2.101-7.791,3.218-11.978,3.218c-8.565,0-16.535-4.601-20.8-12.005
			c-3.206-5.546-4.057-12.014-2.397-18.207c1.66-6.193,5.627-11.364,11.169-14.566c3.644-2.102,7.779-3.211,11.958-3.211
			c8.569,0,16.543,4.593,20.815,11.997C151.944,329.483,152.795,335.95,151.135,342.152z"/>
	</g>
</g>
<g>
	<g>
		<path d="M150.59,313.308c-6.046-6.037-14.083-9.365-22.628-9.365c-17.628,0-31.98,14.348-32,31.992
			c0.019,17.629,14.36,31.978,31.996,31.978h0.031c17.633,0,31.973-14.357,31.974-31.994
			C159.966,327.383,156.639,319.353,150.59,313.308z M127.989,359.914v3.999l-0.055-3.999c-13.208,0-23.963-10.763-23.975-23.979
			c0.012-13.23,10.783-23.994,24.002-23.994c6.41,0,12.439,2.492,16.973,7.03c4.538,4.53,7.034,10.544,7.03,16.948
			C151.964,349.15,141.209,359.914,127.989,359.914z"/>
	</g>
</g>
<g>
	<g>
		<path d="M158.876,327.663c-2.211-8.263-7.502-15.176-14.911-19.448c-4.854-2.804-10.368-4.288-15.949-4.288
			c-11.415,0-22.049,6.132-27.755,16.012c-8.807,15.271-3.558,34.875,11.708,43.709c4.863,2.796,10.385,4.28,15.969,4.28
			c11.419,0,22.042-6.132,27.72-15.996C159.938,344.534,161.082,335.919,158.876,327.663z M148.73,347.933
			c-4.257,7.396-12.228,11.997-20.792,11.997c-4.187,0-8.326-1.109-11.97-3.21c-11.446-6.624-15.386-21.331-8.779-32.781
			c4.28-7.413,12.259-12.014,20.827-12.014c4.179,0,8.311,1.11,11.95,3.211c5.554,3.21,9.525,8.389,11.181,14.59
			C152.803,335.919,151.944,342.379,148.73,347.933z"/>
	</g>
</g>
<g>
	<g>
		<path d="M127.973,311.941c-2.21,0-3.999,1.789-3.999,4v3.982c0,2.211,1.789,4,3.999,4c2.211,0,3.999-1.789,3.999-4v-3.982
			C131.972,313.73,130.184,311.941,127.973,311.941z"/>
	</g>
</g>
<g>
	<g>
		<path d="M127.973,347.926c-2.21,0-3.999,1.788-3.999,3.999v3.983c0,2.21,1.789,3.999,3.999,3.999c2.211,0,3.999-1.789,3.999-3.999
			v-3.983C131.972,349.714,130.184,347.926,127.973,347.926z"/>
	</g>
</g>
<g>
	<g>
		<path d="M119.482,321.783l-2.819-2.819c-1.562-1.562-4.093-1.562-5.655,0c-1.562,1.561-1.562,4.092,0,5.654l2.82,2.82
			c0.782,0.78,1.805,1.171,2.828,1.171c1.023,0,2.046-0.391,2.826-1.171C121.044,325.876,121.044,323.345,119.482,321.783z"/>
	</g>
</g>
<g>
	<g>
		<path d="M144.933,347.23l-2.819-2.828c-1.558-1.554-4.089-1.562-5.655-0.008c-1.566,1.562-1.566,4.094-0.008,5.663l2.82,2.827
			c0.781,0.781,1.805,1.172,2.832,1.172c1.023,0,2.042-0.39,2.822-1.164C146.492,351.331,146.492,348.8,144.933,347.23z"/>
	</g>
</g>
<g>
	<g>
		<path d="M111.969,331.921h-3.991c-2.21,0-3.999,1.788-3.999,3.998c0,2.211,1.789,4,3.999,4h3.991c2.211,0,3.999-1.789,3.999-4
			C115.968,333.709,114.179,331.921,111.969,331.921z"/>
	</g>
</g>
<g>
	<g>
		<path d="M147.953,331.921h-3.991c-2.21,0-3.999,1.788-3.999,3.998c0,2.211,1.789,4,3.999,4h3.991c2.211,0,3.999-1.789,4-4
			C151.953,333.709,150.164,331.921,147.953,331.921z"/>
	</g>
</g>
<g>
	<g>
		<path d="M119.471,344.402c-1.562-1.546-4.093-1.546-5.655,0.008l-2.812,2.82c-1.557,1.57-1.557,4.1,0.008,5.662
			c0.782,0.773,1.801,1.164,2.824,1.164c1.027,0,2.05-0.39,2.831-1.172l2.812-2.819
			C121.037,348.496,121.037,345.964,119.471,344.402z"/>
	</g>
</g>
<g>
	<g>
		<path d="M144.922,318.964c-1.562-1.562-4.093-1.562-5.655,0l-2.82,2.819c-1.562,1.562-1.562,4.093,0,5.655
			c0.782,0.78,1.805,1.171,2.828,1.171s2.047-0.391,2.828-1.171l2.819-2.82C146.484,323.057,146.484,320.526,144.922,318.964z"/>
	</g>
</g>
<g>
	<g>
		<path d="M499.881,263.936H387.907c-1.258,0-2.444,0.594-3.202,1.602l-22.792,30.391h-6.529l26.666-39.99h109.833
			c2.21,0,4-1.789,4-3.999c0-2.21-1.789-3.999-3.999-3.999H379.91c-1.336,0-2.585,0.668-3.327,1.781l-31.992,47.989
			c-0.812,1.226-0.891,2.803-0.203,4.108c0.702,1.296,2.053,2.108,3.53,2.108h15.996c1.257,0,2.445-0.593,3.202-1.601l22.792-30.392
			h109.973c2.21,0,3.999-1.789,3.999-3.999C503.88,265.725,502.091,263.936,499.881,263.936z"/>
	</g>
</g>
<g>
	<g>
		<path d="M415.902,279.934c-30.868,0-55.987,25.119-55.987,55.986c0,30.868,25.119,55.987,55.987,55.987
			c30.867,0,55.986-25.119,55.986-55.987C471.888,305.053,446.769,279.934,415.902,279.934z M415.902,383.908
			c-26.463,0-47.989-21.526-47.989-47.989c0-26.462,21.526-47.988,47.989-47.988c26.462,0,47.988,21.527,47.988,47.988
			C463.89,362.382,442.364,383.908,415.902,383.908z"/>
	</g>
</g>
<g>
	<g>
		<path d="M415.902,303.928c-17.637,0-31.993,14.348-31.993,31.992c0,17.644,14.356,31.993,31.993,31.993
			c17.636,0,31.992-14.349,31.992-31.993C447.894,318.277,433.538,303.928,415.902,303.928z M415.902,359.914
			c-13.231,0-23.995-10.764-23.995-23.995c0-13.23,10.764-23.994,23.995-23.994c13.23,0,23.994,10.764,23.994,23.994
			C439.896,349.15,429.132,359.914,415.902,359.914z"/>
	</g>
</g>
<g>
	<g>
		<path d="M415.902,323.924c-6.616,0-11.998,5.381-11.998,11.996c0,6.616,5.382,11.998,11.998,11.998
			c6.615,0,11.996-5.382,11.996-11.998C427.898,329.305,422.517,323.924,415.902,323.924z M415.902,339.919c-2.203,0-4-1.797-4-4
			c0-2.202,1.797-3.998,4-3.998c2.202,0,3.998,1.796,3.998,3.998C419.9,338.122,418.104,339.919,415.902,339.919z"/>
	</g>
</g>
<g>
	<g>
		<path d="M422.728,297.101l-7.998-7.998c-1.562-1.562-4.093-1.562-5.655,0s-1.562,4.092,0,5.654l7.998,7.998
			c0.781,0.781,1.805,1.172,2.827,1.172c1.023,0,2.047-0.39,2.828-1.172C424.29,301.194,424.29,298.663,422.728,297.101z"/>
	</g>
</g>
<g>
	<g>
		<path d="M422.728,377.082l-7.998-7.998c-1.562-1.562-4.093-1.562-5.655,0s-1.562,4.093,0,5.655l7.998,7.998
			c0.781,0.781,1.805,1.172,2.827,1.172c1.023,0,2.047-0.391,2.828-1.172C424.29,381.176,424.29,378.644,422.728,377.082z"/>
	</g>
</g>
<g>
	<g>
		<path d="M402.405,298.883l-10.92-2.93c-2.116-0.508-4.327,0.703-4.905,2.828c-0.569,2.132,0.695,4.326,2.828,4.904l10.919,2.93
			c0.352,0.086,0.703,0.133,1.047,0.133c1.764,0,3.374-1.18,3.858-2.961C405.802,301.655,404.537,299.461,402.405,298.883z"/>
	</g>
</g>
<g>
	<g>
		<path d="M442.395,368.147l-10.919-2.929c-2.14-0.516-4.327,0.702-4.905,2.827c-0.57,2.132,0.695,4.327,2.827,4.905l10.92,2.929
			c0.352,0.086,0.702,0.133,1.046,0.133c1.765,0,3.374-1.179,3.858-2.96C445.792,370.919,444.527,368.725,442.395,368.147z"/>
	</g>
</g>
<g>
	<g>
		<path d="M390.595,313.426c-0.57-2.141-2.765-3.343-4.905-2.835l-10.919,2.921c-2.125,0.57-3.39,2.764-2.828,4.897
			c0.484,1.788,2.093,2.968,3.858,2.968c0.344,0,0.696-0.047,1.047-0.133l10.919-2.921
			C389.892,317.753,391.157,315.559,390.595,313.426z"/>
	</g>
</g>
<g>
	<g>
		<path d="M459.86,353.416c-0.578-2.132-2.772-3.358-4.905-2.835l-10.919,2.921c-2.125,0.57-3.39,2.765-2.828,4.897
			c0.484,1.789,2.093,2.968,3.858,2.968c0.344,0,0.695-0.047,1.047-0.133l10.92-2.921
			C459.157,357.743,460.422,355.549,459.86,353.416z"/>
	</g>
</g>
<g>
	<g>
		<path d="M382.738,329.094c-1.562-1.562-4.093-1.562-5.655,0l-7.998,7.982c-1.571,1.554-1.571,4.093-0.016,5.655
			c0.78,0.781,1.812,1.172,2.835,1.172s2.039-0.391,2.82-1.172l7.998-7.982C384.292,333.195,384.292,330.656,382.738,329.094z"/>
	</g>
</g>
<g>
	<g>
		<path d="M462.718,329.094c-1.562-1.562-4.092-1.562-5.654,0l-7.998,7.982c-1.571,1.554-1.571,4.093-0.016,5.655
			c0.78,0.781,1.812,1.172,2.835,1.172c1.023,0,2.038-0.391,2.819-1.172l7.998-7.982
			C464.273,333.195,464.273,330.656,462.718,329.094z"/>
	</g>
</g>
<g>
	<g>
		<path d="M383.768,346.598c-2.108-0.563-4.327,0.679-4.905,2.819l-2.937,10.912c-0.57,2.131,0.695,4.327,2.827,4.897
			c0.344,0.094,0.703,0.141,1.047,0.141c1.758,0,3.375-1.172,3.858-2.961l2.937-10.911
			C387.165,349.363,385.901,347.168,383.768,346.598z"/>
	</g>
</g>
<g>
	<g>
		<path d="M453.033,306.608c-2.124-0.571-4.326,0.679-4.904,2.819l-2.938,10.911c-0.57,2.132,0.695,4.327,2.828,4.897
			c0.344,0.094,0.703,0.141,1.047,0.141c1.757,0,3.373-1.171,3.857-2.96l2.938-10.912
			C456.431,309.373,455.166,307.178,453.033,306.608z"/>
	</g>
</g>
<g>
	<g>
		<path d="M401.218,374.973l-2.905-10.919c-0.571-2.133-2.766-3.422-4.89-2.836c-2.14,0.57-3.405,2.757-2.843,4.897l2.905,10.919
			c0.476,1.789,2.092,2.969,3.858,2.969c0.344,0,0.688-0.039,1.032-0.133C400.515,379.3,401.78,377.113,401.218,374.973z"/>
	</g>
</g>
<g>
	<g>
		<path d="M441.209,305.709l-2.905-10.92c-0.571-2.132-2.757-3.413-4.89-2.835c-2.14,0.57-3.405,2.756-2.843,4.897l2.905,10.92
			c0.476,1.788,2.093,2.968,3.858,2.968c0.343,0,0.687-0.039,1.032-0.133C440.507,310.036,441.771,307.849,441.209,305.709z"/>
	</g>
</g>
<g>
	<g>
		<path d="M431.899,308.207c-4.859-2.796-10.389-4.28-15.965-4.28c-11.42,0-22.042,6.132-27.744,15.996
			c-4.265,7.397-5.405,16.019-3.187,24.275c2.21,8.256,7.498,15.161,14.902,19.426c4.859,2.812,10.373,4.296,15.966,4.296
			c11.403,0,22.033-6.131,27.728-16.004C452.417,336.638,447.161,317.033,431.899,308.207z M436.678,347.917
			c-4.28,7.404-12.246,12.005-20.807,12.005c-4.188,0-8.326-1.117-11.967-3.218c-5.545-3.203-9.521-8.381-11.185-14.575
			c-1.656-6.194-0.805-12.653,2.405-18.206c4.266-7.397,12.241-11.998,20.809-11.998c4.186,0,8.326,1.11,11.966,3.211
			C439.35,321.759,443.286,336.458,436.678,347.917z"/>
	</g>
</g>
<g>
	<g>
		<path d="M443.598,319.931c-5.702-9.872-16.332-15.996-27.743-15.996c-5.577,0-11.1,1.476-15.958,4.28
			c-15.277,8.826-20.526,28.43-11.708,43.701c5.687,9.872,16.317,16.004,27.729,16.004c5.591,0,11.122-1.484,15.979-4.288
			c7.389-4.264,12.684-11.162,14.895-19.41C449.003,335.958,447.87,327.336,443.598,319.931z M439.067,342.152
			c-1.656,6.187-5.624,11.349-11.17,14.552c-3.646,2.101-7.794,3.218-11.98,3.218c-8.561,0-16.527-4.601-20.793-12.005
			c-3.21-5.546-4.06-12.014-2.405-18.207c1.664-6.193,5.632-11.364,11.169-14.566c3.649-2.102,7.779-3.211,11.967-3.211
			c8.561,0,16.543,4.593,20.806,11.997C439.879,329.483,440.723,335.95,439.067,342.152z"/>
	</g>
</g>
<g>
	<g>
		<path d="M438.522,313.308c-6.045-6.037-14.082-9.365-22.627-9.365c-17.629,0-31.985,14.348-32.001,31.992
			c0.015,17.629,14.356,31.978,31.993,31.978h0.031c17.635,0,31.976-14.357,31.977-31.994
			C447.895,327.383,444.567,319.353,438.522,313.308z M415.917,359.914v3.999l-0.047-3.999c-13.215,0-23.963-10.763-23.979-23.979
			c0.016-13.23,10.779-23.994,24.003-23.994c6.412,0,12.441,2.492,16.972,7.03c4.538,4.53,7.03,10.544,7.03,16.948
			C439.896,349.15,429.14,359.914,415.917,359.914z"/>
	</g>
</g>
<g>
	<g>
		<path d="M446.808,327.663c-2.211-8.263-7.506-15.176-14.91-19.448c-4.858-2.804-10.373-4.288-15.949-4.288
			c-11.42,0-22.05,6.132-27.76,16.012c-8.803,15.271-3.554,34.875,11.716,43.709c4.859,2.796,10.381,4.28,15.966,4.28
			c11.419,0,22.041-6.132,27.719-15.996C447.87,344.534,449.019,335.919,446.808,327.663z M436.662,347.933
			c-4.256,7.396-12.23,11.997-20.791,11.997c-4.188,0-8.326-1.109-11.967-3.21c-11.45-6.624-15.386-21.331-8.779-32.781
			c4.281-7.413,12.256-12.014,20.824-12.014c4.178,0,8.31,1.11,11.949,3.211c5.554,3.21,9.53,8.389,11.186,14.59
			C440.74,335.919,439.881,342.379,436.662,347.933z"/>
	</g>
</g>
<g>
	<g>
		<path d="M415.902,311.941c-2.211,0-4,1.789-4,4v3.982c0,2.211,1.789,4,4,4c2.21,0,3.998-1.789,3.998-4v-3.982
			C419.9,313.73,418.112,311.941,415.902,311.941z"/>
	</g>
</g>
<g>
	<g>
		<path d="M415.902,347.926c-2.211,0-4,1.788-4,3.999v3.983c0,2.21,1.789,3.999,4,3.999c2.21,0,3.998-1.789,3.998-3.999v-3.983
			C419.9,349.714,418.112,347.926,415.902,347.926z"/>
	</g>
</g>
<g>
	<g>
		<path d="M407.419,321.775l-2.828-2.819c-1.562-1.547-4.092-1.547-5.654,0.008c-1.562,1.569-1.562,4.1,0,5.662l2.827,2.82
			c0.781,0.772,1.804,1.163,2.827,1.163c1.032,0,2.047-0.391,2.828-1.171C408.981,325.868,408.981,323.337,407.419,321.775z"/>
	</g>
</g>
<g>
	<g>
		<path d="M432.866,347.23l-2.827-2.828c-1.562-1.562-4.092-1.562-5.654,0s-1.562,4.093,0,5.655l2.827,2.827
			c0.78,0.781,1.804,1.172,2.827,1.172c1.023,0,2.046-0.39,2.827-1.172C434.428,351.323,434.428,348.792,432.866,347.23z"/>
	</g>
</g>
<g>
	<g>
		<path d="M399.905,331.921h-3.999c-2.21,0-3.999,1.788-3.999,3.998c0,2.211,1.789,4,3.999,4h3.999c2.211,0,3.999-1.789,3.999-4
			C403.904,333.709,402.116,331.921,399.905,331.921z"/>
	</g>
</g>
<g>
	<g>
		<path d="M435.88,331.921h-3.982c-2.211,0-4,1.788-4,3.998c0,2.211,1.789,4,4,4h3.982c2.211,0,4-1.789,4-4
			C439.88,333.709,438.091,331.921,435.88,331.921z"/>
	</g>
</g>
<g>
	<g>
		<path d="M407.404,344.402c-1.562-1.546-4.093-1.546-5.655,0.008l-2.812,2.82c-1.562,1.57-1.562,4.1,0,5.662
			c0.78,0.773,1.804,1.164,2.827,1.164c1.031,0,2.046-0.39,2.828-1.172l2.812-2.819
			C408.966,348.496,408.966,345.964,407.404,344.402z"/>
	</g>
</g>
<g>
	<g>
		<path d="M432.85,318.956c-1.561-1.547-4.092-1.547-5.654,0.008l-2.812,2.819c-1.562,1.57-1.562,4.101,0,5.663
			c0.78,0.772,1.804,1.163,2.827,1.163c1.031,0,2.046-0.391,2.827-1.171l2.812-2.82C434.412,323.049,434.412,320.518,432.85,318.956
			z"/>
	</g>
</g>
<g>
	<g>
		<path d="M503.458,266.147l-7.998-15.997c-0.984-1.979-3.389-2.772-5.365-1.788c-1.977,0.988-2.773,3.39-1.789,5.366l7.998,15.996
			c0.703,1.399,2.109,2.211,3.577,2.211c0.61,0,1.219-0.133,1.789-0.423C503.646,270.52,504.442,268.123,503.458,266.147z"/>
	</g>
</g>
<g>
</g>
<g>
</g>
<g>
</g>
<g>
</g>
<g>
</g>
<g>
</g>
<g>
</g>
<g>
</g>
<g>
</g>
<g>
</g>
<g>
</g>
<g>
</g>
<g>
</g>
<g>
</g>
<g>
</g>
</svg>
