<?xml version="1.0" encoding="iso-8859-1"?>
<!-- Generator: Adobe Illustrator 19.0.0, SVG Export Plug-In . SVG Version: 6.00 Build 0)  -->
<svg version="1.1" id="Capa_1" xmlns="http://www.w3.org/2000/svg" xmlns:xlink="http://www.w3.org/1999/xlink" x="0px" y="0px"
	 viewBox="0 0 511.878 511.878" style="enable-background:new 0 0 511.878 511.878;" xml:space="preserve">
<g>
	<g>
		<path d="M507.879,267.936h-15.996c-2.21,0-3.999,1.788-3.999,3.999s1.789,3.999,3.999,3.999h11.997v31.992h-35.991
			c-2.21,0-3.999,1.789-3.999,3.999c0,2.211,1.789,4,3.999,4h39.99c2.211,0,3.999-1.789,3.999-4v-39.99
			C511.878,269.724,510.09,267.936,507.879,267.936z"/>
	</g>
</g>
<g>
	<g>
		<path d="M484.26,227.966l-93.743-8.838c-7.116-9.029-46.435-55.167-106.584-55.167H171.959c-2.21,0-3.999,1.789-3.999,3.999
			v51.988H11.997c-2.21,0-3.999,1.788-3.999,3.999v47.988c0,2.211,1.789,3.999,3.999,3.999c2.211,0,3.999-1.788,3.999-3.999v-43.989
			h155.963c2.21,0,3.999-1.789,3.999-3.999v-51.988h107.974c61.141,0,100.859,52.827,101.257,53.362
			c0.672,0.914,1.71,1.5,2.843,1.605l95.478,8.998c2.147,0.305,4.147-1.406,4.358-3.604
			C488.072,230.121,486.462,228.173,484.26,227.966z"/>
	</g>
</g>
<g>
	<g>
		<path d="M67.984,307.926H3.999c-2.21,0-3.999,1.789-3.999,3.999c0,2.211,1.789,4,3.999,4h63.985c2.21,0,3.999-1.789,3.999-4
			C71.983,309.715,70.194,307.926,67.984,307.926z"/>
	</g>
</g>
<g>
	<g>
		<path d="M379.91,308.176H155.963c-2.21,0-3.999,1.789-3.999,3.999c0,2.211,1.789,3.999,3.999,3.999H379.91
			c2.211,0,3.999-1.788,3.999-3.999C383.909,309.965,382.121,308.176,379.91,308.176z"/>
	</g>
</g>
<g>
	<g>
		<path d="M203.952,243.942h-15.996c-2.211,0-3.999,1.789-3.999,3.999c0,2.21,1.788,3.999,3.999,3.999h15.996
			c2.21,0,3.999-1.789,3.999-3.999C207.951,245.731,206.162,243.942,203.952,243.942z"/>
	</g>
</g>
<g>
	<g>
		<path d="M379.91,219.948H187.956c-2.211,0-3.999,1.788-3.999,3.999c0,2.21,1.788,3.999,3.999,3.999H379.91
			c2.211,0,3.999-1.789,3.999-3.999C383.909,221.736,382.121,219.948,379.91,219.948z"/>
	</g>
</g>
<g>
	<g>
		<path d="M259.938,171.959c-2.21,0-3.999,1.789-3.999,3.999v39.991c0,2.21,1.789,3.999,3.999,3.999
			c2.211,0,3.999-1.789,3.999-3.999v-39.991C263.937,173.748,262.149,171.959,259.938,171.959z"/>
	</g>
</g>
<g>
	<g>
		<path d="M20.495,275.934H3.999c-2.21,0-3.999,1.789-3.999,3.999c0,2.211,1.789,3.999,3.999,3.999h16.496
			c2.211,0,3.999-1.788,3.999-3.999C24.494,277.723,22.706,275.934,20.495,275.934z"/>
	</g>
</g>
<g>
	<g>
		<path d="M3.999,275.934c-2.21,0-3.999,1.789-3.999,3.999v31.992c0,2.211,1.789,4,3.999,4c2.211,0,3.999-1.789,3.999-4v-31.992
			C7.998,277.723,6.21,275.934,3.999,275.934z"/>
	</g>
</g>
<g>
	<g>
		<path d="M27.993,235.944c-2.211,0-4,1.788-4,3.999v23.994c0,2.211,1.79,3.999,4,3.999c2.211,0,3.999-1.788,3.999-3.999v-23.994
			C31.992,237.732,30.204,235.944,27.993,235.944z"/>
	</g>
</g>
<g>
	<g>
		<path d="M27.994,259.938H11.997c-2.21,0-3.999,1.788-3.999,3.999s1.789,3.999,3.999,3.999h15.996c2.211,0,4-1.788,4-3.999
			S30.204,259.938,27.994,259.938z"/>
	</g>
</g>
<g>
	<g>
		<path d="M27.994,235.944H11.997c-2.21,0-3.999,1.788-3.999,3.999c0,2.21,1.789,3.999,3.999,3.999h15.996
			c2.211,0,3.999-1.789,4-3.999C31.993,237.732,30.204,235.944,27.994,235.944z"/>
	</g>
</g>
<g>
	<g>
		<path d="M423.9,267.937c-22.05,0-39.991,17.941-39.991,39.99c0,22.05,17.941,39.991,39.991,39.991
			c22.049,0,39.99-17.942,39.99-39.991C463.89,285.878,445.949,267.937,423.9,267.937z M423.9,339.919
			c-17.644,0-31.993-14.356-31.993-31.993c0-17.636,14.348-31.992,31.993-31.992c17.643,0,31.992,14.357,31.992,31.992
			C455.892,325.563,441.544,339.919,423.9,339.919z"/>
	</g>
</g>
<g>
	<g>
		<path d="M424.142,303.927h-0.086c-2.203,0-3.953,1.789-3.953,3.999c0,2.211,1.828,3.999,4.039,3.999
			c2.202,0,3.998-1.788,3.998-3.999C428.14,305.716,426.344,303.927,424.142,303.927z"/>
	</g>
</g>
<g>
	<g>
		<path d="M423.9,283.932c-2.211,0-4,1.789-4,3.999v7.998c0,2.211,1.789,3.999,4,3.999c2.21,0,3.998-1.788,3.998-3.999v-7.998
			C427.898,285.721,426.11,283.932,423.9,283.932z"/>
	</g>
</g>
<g>
	<g>
		<path d="M423.9,315.925c-2.211,0-4,1.788-4,3.998v7.998c0,2.211,1.789,4,4,4c2.21,0,3.998-1.789,3.998-4v-7.998
			C427.898,317.713,426.11,315.925,423.9,315.925z"/>
	</g>
</g>
<g>
	<g>
		<path d="M418.245,296.617l-5.655-5.654c-1.561-1.562-4.092-1.562-5.654,0c-1.562,1.561-1.562,4.092,0,5.654l5.654,5.655
			c0.781,0.78,1.805,1.171,2.828,1.171c1.022,0,2.045-0.391,2.827-1.171C419.807,300.71,419.807,298.179,418.245,296.617z"/>
	</g>
</g>
<g>
	<g>
		<path d="M440.865,319.236l-5.655-5.654c-1.562-1.562-4.093-1.562-5.655,0c-1.562,1.562-1.562,4.092,0,5.654l5.655,5.655
			c0.78,0.781,1.804,1.172,2.827,1.172s2.047-0.391,2.828-1.172C442.427,323.33,442.427,320.798,440.865,319.236z"/>
	</g>
</g>
<g>
	<g>
		<path d="M411.902,303.927h-7.998c-2.21,0-3.999,1.789-3.999,3.999c0,2.211,1.789,3.999,3.999,3.999h7.998c2.211,0,4-1.788,4-3.999
			C415.902,305.716,414.113,303.927,411.902,303.927z"/>
	</g>
</g>
<g>
	<g>
		<path d="M443.895,303.927h-7.999c-2.21,0-3.998,1.789-3.998,3.999c0,2.211,1.788,3.999,3.998,3.999h7.999
			c2.21,0,3.999-1.788,3.999-3.999C447.894,305.716,446.105,303.927,443.895,303.927z"/>
	</g>
</g>
<g>
	<g>
		<path d="M418.244,313.582c-1.562-1.562-4.093-1.562-5.655,0l-5.654,5.654c-1.562,1.562-1.562,4.093,0,5.655
			c0.781,0.781,1.804,1.172,2.827,1.172c1.024,0,2.046-0.391,2.827-1.172l5.655-5.655
			C419.806,317.674,419.806,315.144,418.244,313.582z"/>
	</g>
</g>
<g>
	<g>
		<path d="M440.864,290.963c-1.562-1.562-4.093-1.562-5.655,0l-5.655,5.654c-1.562,1.562-1.562,4.093,0,5.655
			c0.781,0.78,1.805,1.171,2.828,1.171s2.046-0.391,2.827-1.171l5.655-5.655C442.426,295.055,442.426,292.525,440.864,290.963z"/>
	</g>
</g>
<g>
	<g>
		<path d="M111.973,267.937c-22.049,0-39.99,17.941-39.99,39.99c0,22.05,17.941,39.991,39.99,39.991
			c22.05,0,39.991-17.942,39.991-39.991C151.964,285.878,134.023,267.937,111.973,267.937z M111.973,339.919
			c-17.644,0-31.992-14.356-31.992-31.993c0-17.636,14.347-31.992,31.992-31.992s31.992,14.357,31.992,31.992
			C143.965,325.563,129.617,339.919,111.973,339.919z"/>
	</g>
</g>
<g>
	<g>
		<path d="M112.215,303.927h-0.086c-2.202,0-3.952,1.789-3.952,3.999c0,2.211,1.828,3.999,4.038,3.999
			c2.203,0,3.999-1.788,3.999-3.999C116.214,305.716,114.418,303.927,112.215,303.927z"/>
	</g>
</g>
<g>
	<g>
		<path d="M111.973,283.932c-2.21,0-3.999,1.789-3.999,3.999v7.998c0,2.211,1.789,3.999,3.999,3.999
			c2.211,0,3.999-1.788,3.999-3.999v-7.998C115.972,285.721,114.183,283.932,111.973,283.932z"/>
	</g>
</g>
<g>
	<g>
		<path d="M111.973,315.925c-2.21,0-3.999,1.788-3.999,3.998v7.998c0,2.211,1.789,4,3.999,4c2.211,0,3.999-1.789,3.999-4v-7.998
			C115.972,317.713,114.183,315.925,111.973,315.925z"/>
	</g>
</g>
<g>
	<g>
		<path d="M106.319,296.617l-5.655-5.654c-1.562-1.562-4.093-1.562-5.655,0c-1.562,1.561-1.562,4.092,0,5.654l5.655,5.655
			c0.781,0.78,1.804,1.171,2.827,1.171s2.046-0.391,2.828-1.171C107.881,300.71,107.881,298.179,106.319,296.617z"/>
	</g>
</g>
<g>
	<g>
		<path d="M128.938,319.236l-5.655-5.654c-1.561-1.562-4.092-1.562-5.654,0c-1.562,1.562-1.562,4.092,0,5.654l5.654,5.655
			c0.781,0.781,1.805,1.172,2.828,1.172s2.046-0.391,2.827-1.172C130.5,323.33,130.5,320.798,128.938,319.236z"/>
	</g>
</g>
<g>
	<g>
		<path d="M99.976,303.927h-7.998c-2.21,0-3.999,1.789-3.999,3.999c0,2.211,1.789,3.999,3.999,3.999h7.998
			c2.211,0,3.999-1.788,3.999-3.999C103.975,305.716,102.186,303.927,99.976,303.927z"/>
	</g>
</g>
<g>
	<g>
		<path d="M131.968,303.927h-7.998c-2.21,0-3.999,1.789-3.999,3.999c0,2.211,1.789,3.999,3.999,3.999h7.998
			c2.211,0,3.999-1.788,3.999-3.999C135.967,305.716,134.179,303.927,131.968,303.927z"/>
	</g>
</g>
<g>
	<g>
		<path d="M106.318,313.582c-1.562-1.562-4.093-1.562-5.655,0l-5.655,5.654c-1.562,1.562-1.562,4.093,0,5.655
			c0.782,0.781,1.805,1.172,2.828,1.172c1.023,0,2.046-0.391,2.827-1.172l5.655-5.655
			C107.88,317.674,107.88,315.144,106.318,313.582z"/>
	</g>
</g>
<g>
	<g>
		<path d="M128.938,290.963c-1.562-1.562-4.093-1.562-5.655,0l-5.654,5.654c-1.562,1.562-1.562,4.093,0,5.655
			c0.781,0.78,1.804,1.171,2.827,1.171c1.023,0,2.046-0.391,2.827-1.171l5.655-5.655C130.5,295.055,130.5,292.525,128.938,290.963z"
			/>
	</g>
</g>
<g>
	<g>
		<path d="M503.763,262.968l-7.998-31.992c-0.539-2.148-2.757-3.456-4.851-2.909c-2.147,0.534-3.444,2.706-2.913,4.846l7.998,31.993
			c0.453,1.819,2.086,3.03,3.882,3.03c0.321,0,0.649-0.039,0.969-0.125C502.997,267.28,504.294,265.109,503.763,262.968z"/>
	</g>
</g>
<g>
	<g>
		<path d="M495.882,243.942h-27.993c-2.21,0-3.999,1.789-3.999,3.999c0,2.21,1.789,3.999,3.999,3.999h27.993
			c2.211,0,3.999-1.789,3.999-3.999C499.881,245.731,498.093,243.942,495.882,243.942z"/>
	</g>
</g>
<g>
	<g>
		<path d="M467.889,225.68c-2.21,0-3.999,1.789-3.999,3.999v18.262c0,2.21,1.789,3.999,3.999,3.999c2.21,0,3.999-1.789,3.999-3.999
			v-18.262C471.888,227.469,470.099,225.68,467.889,225.68z"/>
	</g>
</g>
<g>
	<g>
		<path d="M283.933,243.942h-15.997c-2.21,0-3.999,1.789-3.999,3.999c0,2.21,1.789,3.999,3.999,3.999h15.997
			c2.21,0,3.998-1.789,3.998-3.999C287.931,245.731,286.143,243.942,283.933,243.942z"/>
	</g>
</g>
<g>
</g>
<g>
</g>
<g>
</g>
<g>
</g>
<g>
</g>
<g>
</g>
<g>
</g>
<g>
</g>
<g>
</g>
<g>
</g>
<g>
</g>
<g>
</g>
<g>
</g>
<g>
</g>
<g>
</g>
</svg>
