<svg id="Capa_1" enable-background="new 0 0 512 512" height="512" viewBox="0 0 512 512" width="512" xmlns="http://www.w3.org/2000/svg"><g><path d="m511.791 416.194-36.186-281.345c-3.826-29.736-22.558-49.077-46.413-64.405-9.985-6.416-20.701-16.008-31.842-20.275l-58.821-23.429-37.21-16.928c-.987-.448-2.085-.673-3.167-.673h-84.314c-1.084 0-2.178.227-3.167.673l-37.231 16.939-58.887 23.454c-12.999 5.173-25.445 16.189-37.201 23.743-21.806 14.012-37.565 34.515-40.961 60.901l-3.706 28.812c-1.25 9.72 13.632 11.605 14.877 1.914l3.706-28.812c4.944-38.415 40.553-54.282 69.518-72.894l51.982-20.704 29.674 59.701c4.473 9.002 16.474 11.659 24.33 5.386l21.722-17.344v311.33c0 4.142 3.358 7.5 7.5 7.5s7.5-3.358 7.5-7.5v-311.33l21.722 17.344c7.856 6.274 19.856 3.614 24.33-5.386l29.673-59.702 51.994 20.71c28.97 18.615 64.565 34.462 69.511 72.889l30.241 235.137-65.639 9.168-24.321-183.666 1.131-34.177 8.752-46.273c.77-4.07-1.905-7.994-5.976-8.763-4.063-.772-7.993 1.905-8.763 5.975-2.93 15.492-8.467 32.24-8.987 47.987l-6.679 201.836c-.072 1.311-.024 2.632.141 3.934l8.55 92.124c.265 3.101-1.411 5.997-4.675 6.535l-121.006 19.945v-48.595c0-4.142-3.358-7.5-7.5-7.5s-7.5 3.358-7.5 7.5v48.595l-121.007-19.945c-3.265-.539-4.939-3.434-4.674-6.535l8.549-92.124c.165-1.302.213-2.625.141-3.937l-6.679-201.833c-.52-15.745-6.055-32.488-8.987-47.987-.77-4.071-4.7-6.748-8.763-5.975-4.07.77-6.745 4.693-5.976 8.763l8.752 46.273 1.132 34.207-24.313 183.638-65.64-9.169 21.916-170.408c.528-4.109-2.373-7.867-6.482-8.396-4.112-.524-7.868 2.373-8.396 6.482l-27.861 216.616c-1.635 11.553 6.697 22.891 18.342 24.464l52.278 7.551c11.741 1.684 22.84-6.712 24.522-18.42l18.662-140.93c.837 25.301 4.774 52.345 2.431 77.533l-8.552 92.158c-1.31 11.01 6.204 21.022 17.161 22.828l129.727 21.382c.801.133 1.639.133 2.44 0l129.726-21.383c10.955-1.806 18.47-11.817 17.162-22.827l-8.553-92.159c-2.344-25.198 1.594-52.254 2.432-77.564l17.745 134.007c1.583 13.93 8.887 27.754 25.448 25.373l52.274-7.55c11.662-1.686 19.994-12.798 18.341-24.464zm-255.795-353.714-27.583-38.34h55.166zm-38.582 34.05c-.621.377-1.134.264-1.538-.34l-29.293-58.936 24.701-11.239 34.459 47.898zm78.703-.341c-.404.604-.917.718-1.538.341l-28.328-22.618 34.458-47.898 24.701 11.238zm-211.418 299.752-4.212 31.798c-.495 3.442-3.903 6.146-7.524 5.623l-52.271-7.55c-3.853-.558-6.048-4.134-5.613-7.65l4.036-31.382zm408.183-9.163 4.036 31.384c.451 3.653-1.925 7.114-5.612 7.648l-52.266 7.549c-3.34.476-7.037-2.174-7.52-5.538l-4.222-31.883z"/><path d="m367.271 223.501v-37.35c0-13.938-11.339-25.278-25.277-25.278h-29.916c-13.938 0-25.278 11.34-25.278 25.278v37.35c0 9.071 4.899 17.491 12.785 21.975l14.959 8.504c3.854 2.191 8.172 3.286 12.493 3.286 4.319 0 8.641-1.096 12.494-3.286l14.958-8.504h-.001c7.884-4.483 12.783-12.903 12.783-21.975zm-15.001 0c0 3.689-1.991 7.112-5.197 8.934h-.001l-14.957 8.504c-3.134 1.781-7.027 1.782-10.159 0l-14.959-8.504c-3.206-1.823-5.198-5.246-5.198-8.934v-37.35c0-5.667 4.611-10.277 10.278-10.277h29.916c5.666 0 10.277 4.611 10.277 10.277z"/></g></svg>