<?xml version="1.0" encoding="iso-8859-1"?>
<!-- Generator: Adobe Illustrator 18.1.1, SVG Export Plug-In . SVG Version: 6.00 Build 0)  -->
<svg version="1.1" id="Capa_1" xmlns="http://www.w3.org/2000/svg" xmlns:xlink="http://www.w3.org/1999/xlink" x="0px" y="0px"
	 viewBox="0 0 210.919 210.919" style="enable-background:new 0 0 210.919 210.919;" xml:space="preserve">
<g>
	<g>
		<g>
			<path style="fill:#010002;" d="M209.871,139.414h-19.065v-0.934c0-10.597-8.614-19.215-19.215-19.215
				c-10.593,0-19.211,8.618-19.211,19.215v0.934H67.418v-0.934c0-10.597-8.618-19.215-19.211-19.215
				c-10.586,0-19.208,8.618-19.208,19.215v0.934H0V55.851h128.502c15.396,0,43.086,34.808,46.071,38.616
				c2.595,0.465,17.819,3.371,28.277,9.641c11.606,6.957,7.34,33.401,7.147,34.532L209.871,139.414z M192.65,137.553h15.625
				c0.616-4.398,3.106-26.154-6.385-31.848c-10.919-6.546-27.815-9.43-27.983-9.459l-0.361-0.061l-0.225-0.29
				c-0.297-0.379-29.78-38.179-44.818-38.179H1.861v79.837h25.295c0.487-11.195,9.742-20.149,21.047-20.149
				c11.313,0,20.564,8.954,21.054,20.149h81.279c0.494-11.195,9.745-20.149,21.051-20.149
				C182.901,117.404,192.166,126.358,192.65,137.553z M203.579,115.478h-11.148v-8.06l11.148,3.357V115.478z M194.296,113.617h7.423
				v-1.453l-7.423-2.244V113.617z M166.442,92.817h-68.46V61.295h32.077c11.438,0,34.232,28.792,35.198,30.016L166.442,92.817z
				 M99.843,90.953h62.734c-4.907-5.995-23.377-27.79-32.517-27.79H99.843V90.953z"/>
		</g>
		<g>
			<path style="fill:#010002;" d="M172.075,155.068c-9.151,0-16.602-7.44-16.602-16.595c0-9.144,7.451-16.588,16.602-16.588
				c9.148,0,16.588,7.444,16.588,16.588C188.663,147.627,181.222,155.068,172.075,155.068z M172.075,123.749
				c-8.128,0-14.734,6.603-14.734,14.723c0,8.12,6.607,14.734,14.734,14.734c8.124,0,14.727-6.614,14.727-14.734
				C186.802,130.352,180.199,123.749,172.075,123.749z M172.075,146.271c-4.302,0-7.802-3.497-7.802-7.798
				c0-4.295,3.5-7.791,7.802-7.791c4.295,0,7.798,3.497,7.798,7.791C179.873,142.778,176.369,146.271,172.075,146.271z
				 M172.075,132.542c-3.275,0-5.934,2.666-5.934,5.93c0,3.271,2.659,5.937,5.934,5.937s5.93-2.666,5.93-5.937
				C178.008,135.212,175.349,132.542,172.075,132.542z"/>
		</g>
		<g>
			<path style="fill:#010002;" d="M48.787,154.556c-8.858,0-16.065-7.219-16.065-16.08s7.211-16.062,16.065-16.062
				c8.865,0,16.073,7.201,16.073,16.062C64.86,147.337,57.648,154.556,48.787,154.556z M48.787,124.272
				c-7.831,0-14.201,6.37-14.201,14.204c0,7.834,6.37,14.212,14.201,14.212c7.838,0,14.204-6.378,14.204-14.212
				C62.991,130.642,56.625,124.272,48.787,124.272z M48.787,146.049c-4.169,0-7.573-3.396-7.573-7.573
				c0-4.169,3.407-7.566,7.573-7.566c4.177,0,7.573,3.396,7.573,7.566C56.356,142.653,52.96,146.049,48.787,146.049z
				 M48.787,132.779c-3.146,0-5.712,2.559-5.712,5.698c0,3.149,2.566,5.708,5.712,5.708c3.149,0,5.708-2.559,5.708-5.708
				C54.492,135.337,51.933,132.779,48.787,132.779z"/>
		</g>
		<g>
			<path style="fill:#010002;" d="M152.051,145.093H67.257v-7.741h84.79v7.741H152.051z M69.122,143.225h81.068v-4.008H69.122
				V143.225z"/>
		</g>
	</g>
</g>
<g>
</g>
<g>
</g>
<g>
</g>
<g>
</g>
<g>
</g>
<g>
</g>
<g>
</g>
<g>
</g>
<g>
</g>
<g>
</g>
<g>
</g>
<g>
</g>
<g>
</g>
<g>
</g>
<g>
</g>
</svg>
