<?xml version="1.0"?>
<svg xmlns="http://www.w3.org/2000/svg" id="Layer_1" data-name="Layer 1" viewBox="0 0 512 512" width="512" height="512"><path d="M486.286,265.7l-2.818-2.718a6.019,6.019,0,0,0-2.528-2.437L405,184.04A57.431,57.431,0,0,0,364.04,167H325v-9h22.53c3.314,0,6.47-2.676,6.47-5.99V123.05c0-3.314-3.156-6.05-6.47-6.05H316V96.16c0-3.313-3.177-6.16-6.49-6.16H90.79A5.965,5.965,0,0,0,85,96.16V117H52.77A5.851,5.851,0,0,0,47,123.05v28.96A5.8,5.8,0,0,0,52.77,158H75v9H40c-15.863,0-29,12.516-29,28.38V378.62A6.535,6.535,0,0,0,17.23,385H61.44a43,43,0,0,0,85.12,0H357.44a43,43,0,0,0,85.12,0h52.21a6.535,6.535,0,0,0,6.23-6.38V303.93a60.087,60.087,0,0,0-1.532-12.43C497.15,280.888,492.273,271.486,486.286,265.7ZM406.032,202l30.829,32H326V208.47a6.277,6.277,0,0,1,6.18-6.47ZM97,102H304v15H97ZM59,146V129H342v17Zm254,12v9H300v-9Zm-25,0v9H112v-9Zm-188,0v9H87v-9ZM23,272H78a6,6,0,0,0,0-12H23V195.38C23,186.133,30.753,179,40,179H364.04a46.745,46.745,0,0,1,30.076,11H332.18A18.287,18.287,0,0,0,314,208.47v31.1c0,3.313,2.456,6.43,5.77,6.43H448.6l7.98,7.942c.041.041.082.03.124.07L462.971,260H100a6,6,0,0,0,0,12H475.415l2.536,2.5c2.952,2.851,5.593,7.5,7.535,12.5H23ZM135,378.92a31,31,0,0,1-62,0v-.274C73,361.745,87.092,348,104,348s31,13.757,31,30.62Zm296,0a31,31,0,0,1-62,0v-.274c0-16.9,14.092-30.646,31-30.646s31,13.757,31,30.62ZM489,343H469V325h20Zm0-30H463.37c-3.313,0-6.37,2.216-6.37,5.53v30.51a6.294,6.294,0,0,0,6.37,5.96H489v18H442.615A43.091,43.091,0,0,0,400,336c-21.59,0-38.975,16.151-42.412,37H146.615a43.041,43.041,0,0,0-85.23,0H23V299H488.427a46.781,46.781,0,0,1,.573,4.93Z"/><path d="M155,239.57v-31.1A18.2,18.2,0,0,0,136.92,190H57.07A18.2,18.2,0,0,0,39,208.47v31.1c0,3.313,2.347,6.43,5.66,6.43H149.33C152.644,246,155,242.883,155,239.57ZM143,234H51V208.47A6.188,6.188,0,0,1,57.07,202h79.85a6.2,6.2,0,0,1,6.08,6.47Z"/><path d="M174.97,246H294.13c3.313,0,5.87-3.117,5.87-6.43v-31.1A18.372,18.372,0,0,0,281.72,190H187.38A18.457,18.457,0,0,0,169,208.47v31.1C169,242.883,171.656,246,174.97,246ZM181,208.47a6.444,6.444,0,0,1,6.38-6.47h94.34a6.36,6.36,0,0,1,6.28,6.47V234H181Z"/><path d="M313,351h-7a6,6,0,0,0,0,12h7a6,6,0,0,0,0-12Z"/><path d="M288,351H169a6,6,0,0,0,0,12H288a6,6,0,0,0,0-12Z"/></svg>
