<?xml version="1.0" encoding="iso-8859-1"?>
<!-- Generator: Adobe Illustrator 19.0.0, SVG Export Plug-In . SVG Version: 6.00 Build 0)  -->
<svg version="1.1" id="Layer_1" xmlns="http://www.w3.org/2000/svg" xmlns:xlink="http://www.w3.org/1999/xlink" x="0px" y="0px"
	 viewBox="0 0 491.52 491.52" style="enable-background:new 0 0 491.52 491.52;" xml:space="preserve">
<path style="fill:#FCD462;" d="M470.291,84.28H21.229C9.504,84.28,0,93.359,0,104.559v366.683c0,11.199,9.504,20.278,21.229,20.278
	h449.063c11.725,0,21.229-9.079,21.229-20.278V104.559C491.52,93.359,482.016,84.28,470.291,84.28z"/>
<polygon style="fill:#3EA69B;" points="479.62,146.693 177.905,434.904 24.339,288.211 326.054,0 "/>
<path style="fill:#44C4A1;" d="M158.947,395.834L65.24,306.321c10.47-10.001,10.47-26.217,0-36.218L307.096,39.07
	c10.47,10.001,27.445,10.001,37.915,0l93.707,89.513c-10.47,10.001-10.47,26.217,0,36.218L196.862,395.834
	C186.392,385.832,169.417,385.832,158.947,395.834z"/>
<g>
	<path style="fill:#3EA69B;" d="M293.362,177.922c28.93,27.635,33.855,67.737,11,89.569c-22.855,21.832-64.835,17.127-93.765-10.508
		s-33.855-67.737-11-89.569S264.432,150.286,293.362,177.922z"/>
	<path style="fill:#3EA69B;" d="M378.55,96.547c5.171,4.94,5.171,12.949,0,17.889c-5.171,4.94-13.556,4.94-18.727,0
		c-5.171-4.94-5.171-12.949,0-17.889C364.994,91.607,373.378,91.607,378.55,96.547z"/>
	<path style="fill:#3EA69B;" d="M144.136,320.469c5.171,4.94,5.171,12.949,0,17.889s-13.556,4.94-18.727,0
		c-5.171-4.94-5.171-12.949,0-17.889C130.58,315.529,138.965,315.529,144.136,320.469z"/>
</g>
<path style="fill:#44C4A1;" d="M291.929,259.887l-7.43-7.097c-10.25,7.979-22.297,12.422-36.13,13.324l-1.425-15.555
	c10.652-0.712,19.465-3.497,26.464-8.363l-19.746-18.863c-9.5,5.578-17.526,8.64-24.074,9.19c-6.548,0.55-12.756-1.978-18.624-7.584
	c-5.868-5.606-8.622-12.145-8.25-19.638c0.377-7.489,3.686-14.535,9.931-21.149l-5.09-4.862l6.51-6.219l5.189,4.957
	c8.009-6.607,17.609-10.919,28.808-12.928l2.746,15.266c-7.67,1.234-14.483,3.984-20.459,8.26l19.133,18.277l0.306-0.293
	c9.637-5.701,17.845-8.81,24.625-9.328c6.792-0.522,13.153,2.057,19.088,7.726c5.939,5.673,8.672,12.303,8.192,19.883
	c-0.472,7.588-3.996,14.839-10.581,21.778l7.326,6.998L291.929,259.887z M219.053,203.992c-0.207,3.109,0.832,5.748,3.106,7.92
	c2.274,2.172,4.75,3.24,7.43,3.204c2.675-0.024,6.531-1.278,11.555-3.742l-17.609-16.821
	C220.751,197.733,219.256,200.878,219.053,203.992z M285.109,226.153c0.34-3.299-0.675-6.088-3.052-8.359
	c-2.373-2.267-5.003-3.355-7.885-3.26c-2.891,0.103-6.978,1.515-12.267,4.233l18.317,17.498
	C283.141,232.835,284.765,229.465,285.109,226.153z"/>
<path style="fill:#FCD462;" d="M467.316,193.061H24.203c-9.755,0-17.663,6.655-17.663,14.864V374.87
	c0,8.209,7.908,14.863,17.663,14.863h443.113c9.756,0,17.663-6.654,17.663-14.863V207.925
	C484.979,199.716,477.072,193.061,467.316,193.061z"/>
<path style="fill:#2D93BA;" d="M367.866,181.046L57.221,274.678c-7.478,2.254-11.63,9.863-9.274,16.997l61.77,187.001
	c2.356,7.133,10.329,11.088,17.806,8.834l310.645-93.633c7.479-2.254,11.63-9.863,9.274-16.997l-61.77-187.001
	C383.316,182.747,375.345,178.791,367.866,181.046z"/>
<path style="fill:#27A2DB;" d="M363.996,169.331L53.351,262.964c-7.478,2.254-11.63,9.863-9.274,16.997l61.77,187.001
	c2.356,7.133,10.329,11.088,17.806,8.834l310.645-93.633c7.479-2.254,11.63-9.863,9.274-16.997l-61.77-187.001
	C379.447,171.032,371.476,167.077,363.996,169.331z"/>
<path style="fill:#FCD462;" d="M120.149,271.411l-44.494,13.411c-2.448,0.738-3.806,3.229-3.035,5.563l14.02,42.442
	c0.771,2.335,3.38,3.63,5.828,2.892l44.494-13.411c2.447-0.737,3.806-3.228,3.035-5.563l-14.02-42.442
	C125.205,271.968,122.595,270.673,120.149,271.411z"/>
<path style="fill:#E56353;" d="M373.055,217.633c4.864,14.726-3.707,30.436-19.145,35.089c-15.438,4.653-31.896-3.512-36.761-18.239
	c-4.864-14.726,3.707-30.436,19.145-35.089C351.733,194.741,368.191,202.907,373.055,217.633z"/>
<path style="fill:#EBF0F3;" d="M336.608,228.619c4.864,14.726-3.707,30.436-19.145,35.089c-15.438,4.653-31.896-3.512-36.761-18.239
	c-4.864-14.726,3.707-30.436,19.145-35.089S331.744,213.893,336.608,228.619z"/>
<polygon style="fill:#FFFFFF;" points="189.1,350.249 101.15,376.758 97.759,366.493 185.709,339.983 "/>
<g>
	<polygon style="fill:#1C75A1;" points="160.771,433.066 123.464,444.311 120.073,434.045 157.38,422.8 	"/>
	<polygon style="fill:#1C75A1;" points="228.062,412.783 190.756,424.028 187.365,413.762 224.671,402.518 	"/>
	<polygon style="fill:#1C75A1;" points="295.354,392.501 258.047,403.745 254.656,393.48 291.963,382.235 	"/>
	<polygon style="fill:#1C75A1;" points="362.646,372.218 325.339,383.463 321.948,373.197 359.255,361.952 	"/>
</g>
<polygon style="fill:#FFFFFF;" points="242.748,365.524 110.596,405.356 107.205,395.09 239.357,355.258 "/>
<path style="fill:#F6C358;" d="M308.317,291.397c-6.688,0-12.677,4.287-14.177,10.513c-5.07,21.051-24.803,36.75-48.379,36.75
	s-43.31-15.699-48.381-36.751c-1.499-6.225-7.488-10.512-14.175-10.512H0v179.845c0,11.199,9.504,20.278,21.229,20.278h449.063
	c11.725,0,21.229-9.079,21.229-20.279V291.397H308.317z"/>
<path style="fill:#EBF0F3;" d="M124.427,418.969H53.508c-2.959,0-5.358,2.292-5.358,5.118v18.367c0,2.827,2.399,5.119,5.358,5.119
	h70.919c2.96,0,5.359-2.292,5.359-5.119v-18.367C129.786,421.261,127.387,418.969,124.427,418.969z"/>
<path style="fill:#DC8744;" d="M461.334,479.318h-16.918v-8.136h16.918V479.318z M427.498,479.318H410.58v-8.136h16.918V479.318z
	 M393.654,479.318h-16.918v-8.136h16.918V479.318z M359.818,479.318h-16.926v-8.136h16.926V479.318z M325.974,479.318h-16.918
	v-8.136h16.918V479.318z M292.137,479.318h-16.926v-8.136h16.926V479.318z M258.293,479.318h-16.918v-8.136h16.918V479.318z
	 M224.457,479.318h-16.926v-8.136h16.926V479.318z M190.613,479.318h-16.918v-8.136h16.918V479.318z M156.768,479.318H139.85v-8.136
	h16.918V479.318z M122.932,479.318h-16.918v-8.136h16.918V479.318z M89.088,479.318H72.17v-8.136h16.918V479.318z M55.252,479.318
	H38.325v-8.136h16.926V479.318z M21.407,479.318h-0.175c-4.666,0-8.459-3.623-8.459-8.076v-9.864h8.517L21.407,479.318z
	 M478.743,469.927h-8.517v-16.165h8.517V469.927z M21.291,445.217h-8.517v-16.165h8.517V445.217z M478.743,437.601h-8.517v-16.165
	h8.517V437.601z M21.291,412.887h-8.517v-16.161h8.517V412.887z M478.743,405.275h-8.517V389.11h8.517V405.275z M21.291,380.561
	h-8.517V364.4h8.517V380.561z M478.743,372.95h-8.517v-16.165h8.517V372.95z M21.291,348.236h-8.517v-16.161h8.517V348.236z
	 M478.743,340.624h-8.517v-16.165h8.517V340.624z M21.291,315.91h-8.517v-16.161h8.517V315.91z M478.743,308.294h-8.517v-16.161
	h8.517V308.294z M21.291,283.584h-8.517v-16.165h8.517V283.584z M478.743,275.969h-8.517v-16.161h8.517V275.969z M21.291,251.259
	h-8.517v-16.165h8.517V251.259z M478.743,243.643h-8.517v-16.161h8.517V243.643z M21.291,218.933h-8.517v-16.165h8.517V218.933z
	 M478.743,211.317h-8.517v-16.165h8.517V211.317z M21.291,186.607h-8.517v-16.165h8.517V186.607z M478.743,178.992h-8.517v-16.165
	h8.517V178.992z M21.291,154.282h-8.517v-16.165h8.517V154.282z M478.743,146.666h-8.517v-16.165h8.517V146.666z M21.291,121.952
	h-8.517v-16.161h8.517V121.952z M478.743,114.34h-8.517l0.067-17.857c4.658,0,8.451,3.623,8.451,8.076V114.34z M453.275,104.619
	h-16.918v-8.136h16.918V104.619z M216.397,104.619h-16.926v-8.136h16.926V104.619z M182.553,104.619h-16.918v-8.136h16.918V104.619z
	 M148.709,104.619h-16.918v-8.136h16.918V104.619z M114.872,104.619H97.954v-8.136h16.918V104.619z M81.028,104.619H64.11v-8.136
	h16.918V104.619z M47.192,104.619H30.274v-8.136h16.918V104.619z"/>
<g>
</g>
<g>
</g>
<g>
</g>
<g>
</g>
<g>
</g>
<g>
</g>
<g>
</g>
<g>
</g>
<g>
</g>
<g>
</g>
<g>
</g>
<g>
</g>
<g>
</g>
<g>
</g>
<g>
</g>
</svg>
