<svg xmlns="http://www.w3.org/2000/svg" viewBox="0 0 25 25" width="25" height="25">
	<style>
		tspan { white-space:pre }
		.shp0 { fill: #6d6d6d } 
	</style>
	<g id="show">
		<g id="1">
			<path id="Прямоугольник 24 копия 4" class="shp0" d="M0 0L5 0L5 5L0 5L0 0ZM10 0L15 0L15 5L10 5L10 0ZM20 0L25 0L25 5L20 5L20 0ZM0 10L5 10L5 15L0 15L0 10ZM10 10L15 10L15 15L10 15L10 10ZM20 10L25 10L25 15L20 15L20 10ZM0 20L5 20L5 25L0 25L0 20ZM10 20L15 20L15 25L10 25L10 20ZM20 20L25 20L25 25L20 25L20 20Z" />
		</g>
	</g>
</svg>