<?xml version="1.0" standalone="no"?>
<!DOCTYPE svg PUBLIC "-//W3C//DTD SVG 20010904//EN"
 "http://www.w3.org/TR/2001/REC-SVG-20010904/DTD/svg10.dtd">
<svg version="1.0" xmlns="http://www.w3.org/2000/svg"
 width="19.000000pt" height="19.000000pt" viewBox="0 0 19.000000 19.000000"
 preserveAspectRatio="xMidYMid meet">

<g transform="translate(0.000000,19.000000) scale(0.100000,-0.100000)"
fill="#000000" stroke="none">
<path d="M29 161 c-40 -41 -40 -91 0 -132 22 -21 39 -29 66 -29 51 0 95 44 95
95 0 51 -44 95 -95 95 -27 0 -44 -8 -66 -29z m122 -10 c31 -31 36 -59 18 -92
-10 -20 -12 -20 -29 -4 -15 13 -17 22 -10 36 12 22 4 47 -20 54 -38 12 -69
-20 -50 -54 7 -14 5 -23 -10 -36 -17 -16 -19 -16 -29 4 -6 11 -11 29 -11 41 0
30 53 80 85 80 16 0 38 -12 56 -29z m-33 -28 c5 -10 7 -24 5 -30 -6 -17 -50
-17 -56 0 -6 17 11 47 28 47 8 0 18 -8 23 -17z m18 -84 c14 -24 -46 -39 -76
-19 -13 9 -12 13 8 30 24 20 51 16 68 -11z"/>
</g>
</svg>
